<?xml version="1.0" standalone="no"?>
<!DOCTYPE svg PUBLIC "-//W3C//DTD SVG 20010904//EN"
 "http://www.w3.org/TR/2001/REC-SVG-20010904/DTD/svg10.dtd">
<svg version="1.0" xmlns="http://www.w3.org/2000/svg"
 width="481.000000pt" height="481.000000pt" viewBox="0 0 481.000000 481.000000"
 preserveAspectRatio="xMidYMid meet">
<metadata>
Created by potrace 1.14, written by Peter Selinger 2001-2017
</metadata>
<g transform="translate(0.000000,481.000000) scale(0.100000,-0.100000)"
fill="#000000" stroke="none">
<path d="M171 4478 c1 -183 6 -341 11 -350 5 -10 5 -18 1 -18 -8 0 -8 -1578 0
-2157 3 -183 2 -333 -3 -333 -7 0 -11 -14 -27 -100 -3 -21 10 -81 34 -150 9
-27 11 -330 2 -336 -11 -6 -11 -84 0 -141 5 -23 5 -44 1 -45 -10 -4 -19 -98
-10 -98 5 0 11 8 13 18 3 11 5 7 6 -10 0 -15 -6 -33 -14 -42 -8 -8 -15 -22
-15 -31 0 -9 -5 -13 -10 -10 -6 4 -9 1 -8 -6 4 -17 36 -49 48 -49 13 0 13 -20
0 -40 -8 -12 -10 -11 -10 8 0 19 -2 21 -14 10 -8 -7 -10 -16 -4 -19 5 -3 8
-12 6 -20 -2 -8 3 -13 10 -12 6 2 12 -2 12 -7 0 -6 -4 -10 -9 -10 -13 0 -20
-36 -10 -51 7 -11 9 -10 9 4 0 9 5 17 10 17 17 0 12 -90 -5 -96 -19 -8 -20
-24 -1 -24 9 0 12 -8 8 -27 l-6 -28 -7 25 c-5 19 -7 14 -8 -22 -1 -39 2 -46
15 -41 13 5 15 -10 14 -118 -1 -68 -1 -134 -1 -146 l1 -23 1660 0 c1064 0
1660 3 1660 10 0 5 -6 7 -13 4 -11 -4 -12 8 -5 62 10 74 24 107 74 173 33 43
34 43 43 20 10 -27 7 -34 -8 -24 -6 3 -8 11 -5 17 4 7 2 8 -4 4 -6 -4 -9 -13
-5 -21 3 -8 1 -15 -4 -15 -16 0 -66 -117 -60 -139 3 -12 2 -19 -3 -16 -13 8
-19 -20 -8 -36 8 -11 8 -10 4 5 -6 16 -4 17 10 5 10 -8 12 -15 5 -17 -6 -2
-11 -10 -11 -18 0 -13 86 -14 621 -14 341 1 627 4 634 6 12 5 14 51 14 250 0
243 0 245 -22 255 l-22 10 23 -5 c27 -5 28 2 5 21 -14 10 -14 13 -3 11 13 -3
15 240 18 2130 l2 2132 -145 0 c-145 0 -145 0 -145 -23 0 -13 -5 -28 -12 -35
-8 -8 -8 -15 1 -26 9 -10 11 -30 7 -58 -3 -24 -8 -70 -10 -103 -6 -83 -10
-108 -19 -122 -4 -7 -1 -23 9 -37 12 -20 14 -37 9 -78 -4 -29 -11 -58 -16 -64
-9 -11 -11 -63 -7 -151 2 -38 -6 -63 -16 -52 -6 7 -16 358 -16 562 l0 187 -76
0 -76 0 6 -354 c4 -237 3 -357 -4 -361 -5 -3 -10 -17 -10 -31 0 -14 4 -23 8
-20 10 6 21 -287 23 -604 0 -118 2 -237 4 -265 9 -143 16 -1465 8 -1465 -6 0
-10 -28 -10 -62 l0 -63 7 50 c4 29 8 -57 8 -207 2 -201 -1 -258 -10 -258 -9 0
-8 -4 2 -10 8 -5 11 -10 6 -10 -5 0 -3 -6 3 -14 8 -9 10 -54 8 -139 -3 -106
-7 -131 -26 -168 -13 -24 -31 -59 -39 -76 -19 -38 -28 -40 -58 -12 -18 17 -22
18 -27 5 -4 -10 -1 -16 8 -16 8 0 15 -4 15 -10 0 -26 -46 -5 -91 41 -49 50
-58 71 -22 50 10 -6 14 -11 10 -11 -4 0 -2 -6 5 -14 7 -8 17 -11 22 -8 5 3 15
-3 23 -13 7 -11 13 -14 13 -7 0 15 -51 62 -67 62 -7 0 -13 5 -13 12 0 6 -9 3
-20 -7 -11 -10 -21 -15 -21 -12 -3 13 -7 27 -9 32 -1 3 -3 8 -4 13 -3 14 -31
52 -38 52 -13 0 -9 -28 4 -32 8 -3 9 -6 1 -11 -6 -4 -21 2 -33 13 -13 11 -27
20 -32 20 -5 0 -6 5 -3 10 3 6 2 10 -3 10 -5 0 -9 6 -10 13 -1 6 -3 23 -4 37
-2 16 -9 25 -20 25 -10 0 -23 6 -30 13 -9 9 -9 12 0 12 7 0 12 4 12 9 0 4 -19
8 -42 8 -37 0 -40 -1 -23 -13 10 -8 16 -16 13 -19 -3 -3 -16 4 -31 15 -14 11
-30 20 -36 20 -10 0 -15 20 -12 47 1 7 -3 13 -9 13 -5 0 -10 -4 -10 -10 0 -5
-7 -7 -16 -3 -8 3 -13 12 -10 20 4 8 -3 17 -17 23 -20 8 -21 9 -2 10 19 1 19
1 2 11 -9 6 -27 7 -40 3 -19 -6 -20 -5 -8 10 12 15 8 20 -11 17 -5 0 -8 7 -8
17 0 25 -11 34 -26 21 -9 -7 -12 -6 -10 7 3 18 -34 55 -65 67 -9 3 -22 0 -28
-6 -7 -7 -11 -7 -10 -2 2 6 -8 30 -21 55 -20 38 -24 63 -28 163 -2 64 -2 117
1 117 6 0 158 -101 167 -111 13 -14 102 -69 112 -69 6 0 8 -3 5 -6 -7 -7 119
-94 134 -94 5 0 9 -5 9 -10 0 -6 8 -13 18 -17 9 -3 25 -13 35 -21 9 -8 19 -13
21 -11 2 2 2 45 -1 96 l-6 91 -25 -11 c-20 -9 -26 -9 -30 1 -2 6 -12 12 -23
12 -23 0 -25 16 -3 24 15 6 15 8 -1 26 -10 11 -15 23 -11 28 4 4 16 -4 27 -17
24 -29 37 -21 21 13 -9 21 -9 24 3 19 10 -3 15 1 15 14 0 12 -7 19 -20 19 -11
0 -20 -6 -20 -13 0 -6 -5 -15 -12 -19 -8 -5 -9 -2 -5 9 5 15 -1 17 -44 17 -31
0 -48 4 -44 10 4 6 -5 10 -20 10 -28 0 -25 -20 3 -20 13 -1 10 -6 -10 -23 -16
-13 -28 -28 -28 -35 0 -16 -37 -16 -43 1 -3 6 -6 8 -6 2 -1 -16 12 -30 42 -42
15 -7 27 -17 27 -23 0 -6 -11 -3 -25 6 -13 8 -30 12 -36 8 -7 -4 -10 -3 -7 2
6 11 -28 45 -37 36 -3 -4 -9 -2 -13 4 -10 14 -155 109 -167 109 -6 0 -10 28
-10 65 0 63 1 65 24 62 13 -1 29 -10 36 -18 8 -12 20 -15 43 -9 18 3 32 11 32
15 0 5 6 7 14 4 7 -3 20 1 27 9 8 7 20 12 27 9 7 -2 10 2 6 12 -4 11 -2 15 7
11 8 -3 21 -1 29 5 21 13 -2 35 -27 25 -10 -4 -27 -9 -39 -10 -17 -3 -20 1
-16 21 4 21 1 24 -25 24 -20 0 -30 5 -30 15 0 8 4 15 8 15 3 0 9 11 11 25 3
14 1 22 -5 18 -5 -3 -6 3 -2 16 7 22 -10 30 -18 9 -3 -7 -3 3 0 22 3 19 12 46
19 60 26 54 -17 355 -70 481 -12 28 -12 39 -3 49 9 10 9 11 0 6 -18 -10 -16 2
2 20 8 9 15 11 15 5 0 -18 17 -12 22 7 4 15 0 18 -19 16 -21 -2 -22 0 -11 14
20 27 22 28 15 9 -4 -11 -3 -16 3 -12 6 3 10 12 10 19 0 9 22 11 80 10 44 -2
82 2 85 7 4 5 -2 9 -12 9 -15 0 -16 2 -3 11 12 8 11 9 -6 4 -22 -6 -82 -9 -99
-5 -5 1 -17 2 -25 1 -13 -1 -13 -3 -1 -10 10 -7 6 -9 -13 -8 -20 2 -23 4 -13
12 8 6 17 20 21 32 5 16 12 20 29 16 12 -3 36 -7 52 -9 22 -3 19 0 -15 12 -25
9 -47 18 -49 20 -3 3 2 13 61 124 27 52 37 87 48 168 15 112 20 80 -59 366
-43 154 -202 469 -229 452 -10 -6 -150 64 -190 95 -13 10 -37 21 -55 25 -18 3
-34 10 -37 13 -3 4 -33 25 -68 46 l-62 38 -90 -6 c-115 -7 -163 -29 -253 -115
-40 -37 -103 -89 -142 -115 -158 -108 -152 -101 -183 -212 -11 -38 -28 -97
-37 -129 -9 -33 -21 -104 -26 -159 -4 -54 -13 -105 -18 -111 -6 -7 -24 -50
-41 -97 -34 -95 -38 -166 -14 -224 18 -44 7 -85 -23 -86 -30 -1 -77 -8 -227
-34 -80 -13 -152 -22 -161 -19 -8 4 -22 0 -31 -7 -15 -12 -50 -21 -89 -21 -11
0 -92 -13 -180 -28 -88 -16 -187 -32 -220 -36 -52 -7 -56 -9 -30 -15 22 -5 24
-7 9 -8 -12 0 -37 -3 -55 -6 -27 -4 -30 -3 -14 5 14 7 0 8 -50 3 -51 -4 -73
-11 -85 -25 -9 -12 -33 -21 -60 -24 -42 -5 -44 -4 -26 10 23 18 14 21 -15 5
-11 -5 -17 -15 -13 -21 5 -7 -4 -9 -25 -6 -18 3 -34 1 -37 -4 -3 -4 -17 -8
-31 -8 -15 0 -24 -3 -20 -6 3 -3 45 0 94 6 139 18 153 20 243 24 47 2 97 7
112 11 15 4 34 3 43 -2 17 -10 1 -12 -105 -14 -31 0 -39 -3 -26 -8 19 -7 19
-8 -2 -13 -13 -4 -20 -2 -19 5 1 6 -6 13 -17 15 -11 2 -16 0 -12 -7 4 -6 2
-11 -4 -11 -20 0 -1 -17 25 -22 15 -3 22 -1 18 5 -4 6 8 7 33 3 57 -11 124
-14 118 -5 -3 5 9 3 26 -3 23 -8 35 -7 43 1 6 6 18 11 27 11 13 0 13 -2 1 -9
-11 -7 -4 -12 27 -21 23 -6 42 -13 42 -16 0 -2 -11 -2 -24 2 -13 3 -33 1 -44
-5 -12 -7 -31 -7 -51 -1 -22 6 -41 5 -64 -5 -18 -8 -27 -14 -20 -15 6 0 19 -3
29 -7 10 -3 15 -2 12 3 -4 5 8 10 25 11 l32 1 -28 -10 c-15 -5 -25 -14 -22
-18 3 -5 0 -12 -6 -16 -8 -4 -9 -3 -5 4 8 14 0 14 -29 3 -17 -7 -15 -9 15 -16
34 -7 34 -8 11 -17 -14 -5 -37 -6 -53 -3 -17 4 -28 2 -28 -4 0 -6 8 -8 17 -5
15 5 15 4 3 -5 -8 -5 -11 -13 -7 -18 5 -4 11 -2 15 4 5 7 26 9 67 3 48 -6 53
-8 25 -10 -19 -2 -48 -2 -65 -2 -25 1 -27 0 -10 -7 13 -5 -9 -7 -60 -6 -50 1
-83 -2 -87 -9 -5 -8 -8 -7 -8 2 0 7 -8 4 -20 -8 -15 -15 -34 -20 -77 -21 -44
0 -53 -3 -38 -10 15 -7 11 -8 -18 -5 -21 3 -56 -1 -78 -9 -22 -8 -37 -10 -34
-5 3 6 -1 7 -10 4 -27 -11 -14 -48 20 -55 22 -5 24 -7 8 -8 -12 0 -23 -5 -25
-11 -1 -5 -23 -12 -47 -16 -32 -5 -42 -4 -37 4 4 7 -7 4 -23 -6 -26 -14 -34
-15 -52 -4 -11 7 -24 11 -27 8 -3 -3 1 -6 9 -6 8 0 4 -7 -9 -16 -13 -9 -26
-13 -30 -9 -3 3 0 10 8 15 10 7 11 10 3 10 -7 0 -22 -9 -32 -19 -17 -17 -21
-18 -31 -6 -9 11 -17 12 -31 4 -11 -5 -25 -7 -31 -3 -6 4 -8 3 -5 -3 4 -6 0
-14 -9 -17 -22 -8 -26 -8 -19 4 12 19 -7 10 -27 -12 -11 -13 -17 -17 -13 -10
3 6 0 12 -7 12 -9 0 -10 3 -2 8 6 4 10 15 8 26 -2 15 3 17 31 14 18 -2 31 0
29 4 -3 4 5 8 18 8 57 -1 153 11 156 18 1 4 18 6 37 4 23 -3 40 1 51 12 23 23
16 26 -41 15 -164 -31 -285 -47 -285 -37 0 4 -4 8 -9 8 -6 0 -12 -17 -14 -37
-2 -21 -4 35 -5 124 -2 129 1 161 11 157 8 -3 13 4 14 17 3 29 11 35 31 22 29
-18 82 -26 82 -13 0 7 -6 10 -14 7 -8 -3 -19 0 -25 6 -7 10 -3 13 16 15 15 1
29 5 32 8 3 4 -26 4 -66 0 l-72 -6 -3 132 c-2 73 -1 175 2 227 3 51 3 155 0
230 -3 75 -7 116 -9 91 -2 -36 -4 -40 -10 -21 -9 35 -1 97 11 80 6 -9 8 1 6
31 -1 25 -7 48 -13 52 -6 5 -4 8 5 8 13 0 13 1 0 10 -10 6 -11 10 -2 10 6 0
12 7 12 16 0 10 -6 13 -18 10 -13 -4 -19 -1 -19 9 0 11 7 14 21 10 17 -5 16
-3 -4 9 -14 9 -19 15 -12 16 6 0 12 10 12 23 0 18 2 19 10 7 8 -12 10 -9 10
13 0 31 -17 70 -28 63 -9 -6 -2 96 8 109 4 6 6 37 3 70 -6 95 -5 127 2 183 6
38 4 52 -5 52 -8 0 -10 -8 -6 -25 4 -14 2 -25 -4 -25 -17 0 -11 48 8 59 14 9
14 10 2 11 -22 0 -25 63 -4 94 10 16 13 33 8 48 -4 13 -6 161 -5 331 l2 307
-96 0 -96 0 2 -332z m4309 -494 c0 -30 -4 -54 -10 -54 -6 0 -10 27 -10 61 0
37 4 58 10 54 6 -3 10 -31 10 -61z m10 -304 c0 -11 -4 -20 -9 -20 -5 0 -7 9
-4 20 3 11 7 20 9 20 2 0 4 -9 4 -20z m0 -105 c0 -8 -4 -15 -10 -15 -5 0 -7 7
-4 15 4 8 8 15 10 15 2 0 4 -7 4 -15z m-4143 -57 c-3 -8 -6 -5 -6 6 -1 11 2
17 5 13 3 -3 4 -12 1 -19z m-147 -185 c0 -7 -4 -13 -10 -13 -5 0 -10 12 -10
28 0 21 2 24 10 12 5 -8 10 -21 10 -27z m4408 -263 c2 -38 -1 -60 -7 -60 -6 0
-11 7 -11 15 0 8 -7 15 -15 15 -25 0 -11 62 19 82 6 4 11 8 11 8 0 0 2 -27 3
-60z m52 -34 c-1 -14 -39 65 -39 79 0 6 9 -8 19 -29 11 -22 20 -44 20 -50z
m-1373 42 c-3 -8 -6 -5 -6 6 -1 11 2 17 5 13 3 -3 4 -12 1 -19z m1243 -8 c0
-5 -6 -10 -14 -10 -8 0 -18 5 -21 10 -3 6 3 10 14 10 12 0 21 -4 21 -10z
m-2313 -6 c-3 -3 -12 -4 -19 -1 -8 3 -5 6 6 6 11 1 17 -2 13 -5z m2393 -75 c0
-10 -12 -11 -34 -3 -9 3 -14 10 -11 14 6 10 45 1 45 -11z m-9 -31 c5 -84 6
-81 -13 -57 -22 26 -24 69 -3 69 8 0 15 -6 16 -12z m-2834 -218 c1 -11 -2 -22
-8 -25 -10 -7 -13 28 -2 38 9 9 9 10 10 -13z m-360 -46 c-3 -3 -12 -4 -19 -1
-8 3 -5 6 6 6 11 1 17 -2 13 -5z m194 -17 c-4 -4 -18 -3 -32 2 -23 9 -22 9 8
8 18 -1 28 -6 24 -10z m-320 -6 c-8 -5 -20 -7 -28 -4 -21 8 -15 13 15 13 20 0
23 -3 13 -9z m274 -1 c15 -6 11 -7 -17 -7 -23 1 -33 4 -25 9 14 9 16 9 42 -2z
m373 -18 c2 -7 -1 -12 -8 -12 -6 0 -9 4 -6 9 4 5 1 12 -4 14 -6 3 -5 4 2 3 6
-1 14 -8 16 -14z m-483 -2 c3 -6 -1 -7 -9 -4 -18 7 -21 14 -7 14 6 0 13 -4 16
-10z m440 0 c-3 -5 -14 -10 -23 -9 -14 0 -13 2 3 9 27 11 27 11 20 0z m-785
-7 c0 -2 -11 -8 -25 -13 -25 -10 -65 -2 -47 9 11 7 72 10 72 4z m346 -72 c-4
-6 -19 -11 -34 -10 l-27 1 25 7 c14 5 24 14 22 22 -3 11 -1 11 8 2 7 -6 9 -16
6 -22z m44 -51 c13 -9 13 -10 0 -10 -13 0 -13 -1 0 -10 8 -5 11 -10 5 -10 -5
0 -17 5 -25 10 -13 9 -13 10 0 10 13 0 13 1 0 10 -8 5 -10 10 -5 10 6 0 17 -5
25 -10z m276 -17 c-10 -10 -19 5 -10 18 6 11 8 11 12 0 2 -7 1 -15 -2 -18z
m-326 7 c-8 -5 -24 -9 -35 -9 -16 1 -16 2 5 9 35 11 48 11 30 0z m277 -12 c-3
-8 -6 -5 -6 6 -1 11 2 17 5 13 3 -3 4 -12 1 -19z m-348 -50 c12 -17 10 -18
-30 -17 l-44 2 35 7 c19 4 26 8 15 9 -16 1 -17 3 -5 11 8 5 15 8 15 7 0 -1 7
-10 14 -19z m236 -9 c-4 -5 0 -9 7 -9 8 0 6 -5 -5 -11 -10 -6 -21 -8 -24 -5
-4 3 0 6 8 7 8 0 6 4 -6 9 -18 8 -18 9 -2 9 11 1 15 6 11 13 -4 7 -3 8 5 4 6
-4 9 -12 6 -17z m-165 2 c0 -10 -24 -21 -43 -21 -7 0 -3 7 7 15 22 17 36 19
36 6z m235 -1 c3 -5 -1 -10 -10 -10 -9 0 -13 5 -10 10 3 6 8 10 10 10 2 0 7
-4 10 -10z m-128 -6 c-3 -3 -12 -4 -19 -1 -8 3 -5 6 6 6 11 1 17 -2 13 -5z
m423 -20 c0 -8 -4 -13 -9 -10 -5 4 -7 -3 -4 -15 5 -19 4 -20 -18 -7 -13 7 -29
19 -37 26 -11 10 -11 12 2 12 9 0 16 -6 16 -12 0 -7 5 -5 11 5 12 21 39 22 39
1z m-420 -4 c-20 -13 -43 -13 -35 0 3 6 16 10 28 10 18 0 19 -2 7 -10z m-76
-21 c-10 -4 -28 -8 -39 -8 -15 0 -12 3 10 13 17 7 34 11 39 8 5 -3 1 -9 -10
-13z m449 -26 c32 -43 35 -73 7 -91 -20 -12 -20 -12 1 -42 12 -16 26 -27 30
-24 4 2 6 -4 4 -14 -2 -11 3 -19 10 -19 8 0 11 5 8 11 -3 6 1 4 10 -4 9 -8 19
-28 23 -44 6 -24 4 -28 -9 -23 -10 4 -14 0 -12 -11 1 -9 8 -16 15 -14 7 2 11
-9 9 -30 -2 -18 1 -40 5 -47 6 -10 5 -12 -2 -7 -7 4 -12 1 -12 -8 0 -9 6 -16
13 -17 6 0 3 -4 -8 -9 -18 -8 -18 -9 -2 -9 10 -1 15 -6 11 -12 -3 -6 -7 -36
-9 -67 -2 -31 -5 -64 -8 -72 -13 -34 -14 -108 -2 -104 6 3 12 -2 12 -10 0 -8
-4 -13 -8 -11 -4 3 -9 -2 -12 -10 -4 -9 -1 -12 7 -9 8 3 17 0 22 -7 4 -7 3
-10 -4 -5 -6 3 -17 -8 -26 -26 -17 -33 -16 -38 6 -42 7 -2 26 -7 42 -11 30 -8
30 -8 6 -17 -16 -6 -26 -5 -32 4 -4 7 -8 8 -8 2 0 -19 -108 0 -124 22 -12 15
-17 16 -27 7 -17 -17 25 -51 74 -59 20 -4 40 -11 43 -16 4 -6 -9 -6 -33 -2
-43 7 -74 22 -85 38 -9 13 -10 -90 -2 -122 5 -18 12 -22 29 -18 14 4 25 1 28
-8 4 -9 -2 -12 -21 -9 -21 4 -24 2 -12 -6 8 -6 11 -11 6 -11 -5 0 -1 -9 9 -20
10 -11 21 -17 26 -15 4 3 11 0 15 -6 4 -8 3 -9 -4 -5 -14 9 -15 1 -2 -23 6
-12 5 -31 -2 -54 -9 -29 -8 -42 2 -61 11 -22 42 -40 63 -37 4 1 7 -5 7 -13 0
-12 -7 -13 -32 -5 -18 5 -34 9 -35 9 -1 0 -11 10 -23 22 -23 26 -26 9 -5 -32
14 -27 62 -50 130 -62 12 -3 -1 -9 -33 -17 -50 -13 -54 -12 -85 12 -17 13 -43
35 -57 48 -61 59 -57 66 -50 -103 0 -3 6 -8 13 -11 6 -2 1 -2 -11 0 -15 2 -21
0 -17 -7 3 -5 0 -10 -8 -10 -8 0 -17 10 -21 23 -9 33 -7 49 4 42 14 -9 12 1
-4 17 -7 8 -25 38 -38 67 l-26 52 36 47 c50 65 72 130 71 205 0 42 -3 56 -8
42 -5 -11 -17 -27 -27 -36 -24 -20 -83 -44 -90 -36 -3 3 5 8 17 12 31 10 89
65 89 85 0 31 -13 30 -29 -3 -22 -44 -90 -67 -191 -66 -41 1 -80 6 -87 11 -7
5 -20 8 -30 6 -14 -4 -9 -9 20 -23 47 -24 49 -39 2 -19 -19 8 -35 11 -35 7 0
-5 -5 -1 -11 7 -9 13 -10 12 -5 -2 4 -13 0 -18 -14 -18 -11 0 -20 -4 -20 -10
0 -6 9 -6 24 0 28 10 67 2 64 -14 -2 -6 6 -33 16 -59 15 -41 16 -53 6 -72 -11
-21 -9 -30 14 -69 28 -49 31 -56 17 -56 -5 0 -11 8 -14 18 -3 13 -6 11 -15
-11 -18 -44 -14 -76 13 -101 30 -28 31 -35 6 -33 -11 0 -17 5 -15 9 3 4 -2 8
-10 8 -10 0 -16 9 -16 25 0 14 -4 25 -10 25 -5 0 -10 -15 -10 -32 0 -27 8 -39
40 -62 22 -17 40 -33 40 -38 0 -4 7 -8 15 -8 23 0 18 -17 -7 -23 -15 -4 -30 1
-43 13 -12 11 -26 20 -33 20 -6 0 -16 9 -22 20 -6 11 -22 23 -35 26 -13 3 -23
11 -22 16 1 6 -4 13 -11 15 -11 4 -12 -11 -7 -78 l8 -84 -24 30 c-13 17 -36
44 -52 60 -29 32 -43 67 -32 85 3 5 -1 13 -9 16 -12 5 -7 16 24 58 51 68 81
136 87 200 2 28 6 56 8 62 1 6 -5 16 -15 22 -14 8 -19 8 -23 -2 -3 -8 -31 -28
-62 -46 -65 -37 -140 -46 -214 -23 -70 21 -86 6 -26 -24 28 -14 39 -22 25 -19
-14 3 -30 6 -37 6 -6 0 -25 11 -41 25 -22 18 -29 31 -25 46 4 16 8 17 14 7 6
-9 9 -2 9 19 0 17 4 35 10 38 5 3 15 15 21 27 9 16 8 19 -3 13 -7 -3 -4 1 6 9
11 9 17 16 13 16 -4 0 -3 8 2 19 12 22 45 221 37 228 -9 10 -27 -9 -22 -23 4
-9 -2 -14 -17 -14 -16 0 -18 3 -9 9 10 6 8 10 -8 14 -12 3 -19 10 -16 15 3 5
-3 12 -15 15 -15 4 -18 2 -10 -7 5 -6 6 -17 2 -25 -8 -13 -6 -89 3 -98 3 -3
-1 -12 -9 -20 -10 -9 -13 -24 -9 -41 l6 -27 -15 25 c-9 16 -11 33 -6 48 6 15
5 22 -4 22 -7 0 -8 3 -2 8 6 4 11 30 11 57 3 87 3 88 20 81 29 -11 4 12 -31
28 -28 14 -35 23 -35 46 0 22 -5 30 -17 31 -11 0 -13 3 -5 6 6 2 9 10 5 16 -4
6 -1 8 8 5 10 -4 15 1 16 14 1 14 -3 18 -13 14 -9 -3 -23 -6 -32 -6 -14 0 -14
-2 -3 -9 15 -10 7 -31 -12 -30 -8 0 -7 3 2 6 10 4 10 7 1 13 -7 4 -14 18 -15
31 -5 43 -23 77 -44 84 -15 4 -21 15 -21 36 0 16 2 29 4 29 2 0 11 3 19 6 9 3
17 -2 20 -13 5 -16 6 -16 5 2 -1 38 2 41 52 54 l50 13 0 49 c0 32 4 49 13 49
6 1 31 4 54 9 l41 8 4 -34 c3 -25 1 -32 -10 -28 -7 3 0 -9 16 -25 17 -17 37
-30 44 -30 7 0 24 -7 37 -16 28 -20 14 -42 -17 -25 -30 16 -45 14 -38 -5 5
-14 4 -15 -8 -5 -12 10 -13 8 -9 -10 5 -17 3 -20 -8 -14 -16 10 18 -33 41 -52
8 -6 27 -14 41 -17 l26 -5 -3 -183 c-2 -101 -6 -199 -9 -218 -3 -19 -1 -41 4
-49 9 -14 -5 -60 -23 -72 -5 -4 -6 -13 -3 -21 3 -8 1 -21 -5 -29 -8 -11 -9
-10 -4 4 3 11 2 16 -4 12 -15 -9 -12 -51 5 -65 8 -7 13 -16 10 -20 -3 -5 9
-13 27 -19 38 -14 58 -14 38 -1 -8 5 -10 10 -4 10 5 0 15 -5 22 -12 8 -8 12
-9 12 -1 0 6 13 14 29 18 30 6 46 29 34 47 -3 6 -1 8 4 5 15 -10 46 29 39 49
-4 12 -2 15 9 10 9 -3 15 0 15 10 0 9 5 12 12 8 7 -4 8 -3 4 4 -4 6 -8 75 -9
152 -1 86 -5 141 -12 141 -5 1 -25 3 -44 3 l-34 2 1 119 c2 126 6 150 29 177
17 19 2 58 -22 58 -46 0 37 75 96 87 l44 9 -3 46 c-2 26 2 49 7 53 10 6 125
-97 117 -106 -2 -2 7 -5 20 -6 46 -4 52 -6 49 -22 -1 -9 -12 -16 -26 -16 -13
0 -27 -4 -31 -10 -5 -7 -14 -6 -28 3 -17 11 -20 10 -20 -7 0 -24 17 -37 60
-46 30 -7 32 -9 15 -16 -16 -6 -17 -8 -3 -8 23 -1 28 -12 34 -72 2 -28 5 -54
6 -58 0 -3 -1 -8 -2 -11 -5 -13 -5 -240 0 -240 3 0 6 -9 7 -20 1 -11 -3 -20
-8 -20 -5 0 -7 -17 -4 -37 3 -21 7 -48 9 -61 2 -17 -1 -22 -11 -18 -8 3 -11 1
-8 -4 3 -6 14 -10 23 -11 14 0 13 -2 -3 -9 -17 -7 -15 -9 13 -9 29 -1 37 -9
33 -33 0 -5 4 -8 9 -8 6 0 10 4 10 10 0 5 3 9 8 8 4 -1 22 3 41 10 26 9 32 16
28 32 -3 11 -1 17 4 14 5 -3 1 9 -10 27 -13 21 -22 60 -27 111 -4 46 -10 75
-16 72 -6 -4 -8 2 -4 14 4 12 2 31 -4 43 -8 15 -9 19 -1 15 8 -5 11 33 11 131
0 120 3 143 20 176 20 37 20 39 3 68 -17 29 -17 30 8 54 14 14 47 33 74 43 47
17 50 20 53 55 4 46 19 46 55 0z m-766 21 c-3 -3 -12 -4 -19 -1 -8 3 -5 6 6 6
11 1 17 -2 13 -5z m33 -14 c-16 -10 -18 -10 35 -15 53 -5 56 -8 15 -15 -25 -4
-58 -10 -75 -14 -21 -4 -24 -4 -10 2 16 7 17 10 5 14 -8 3 -1 4 15 2 l30 -4
-24 14 c-18 10 -20 15 -10 19 23 9 35 7 19 -3z m57 4 c-3 -3 -12 -4 -19 -1 -8
3 -5 6 6 6 11 1 17 -2 13 -5z m103 -4 c18 -12 2 -12 -25 0 -13 6 -15 9 -5 9 8
0 22 -4 30 -9z m860 3 c0 -5 10 -24 22 -43 18 -29 22 -52 24 -140 3 -124 11
-279 16 -300 4 -21 21 -36 46 -45 26 -8 27 -42 2 -62 -8 -6 -12 -15 -7 -19 4
-4 7 -2 7 4 0 7 7 12 15 12 8 0 15 -8 15 -19 0 -10 3 -33 6 -50 5 -26 3 -31
-13 -31 -10 0 -29 7 -41 16 -13 9 -25 14 -27 12 -8 -8 27 -49 49 -59 17 -8 16
-8 -8 -4 -17 4 -36 14 -43 23 -12 15 -13 10 -8 -35 9 -78 21 -113 57 -162 32
-44 32 -44 16 -88 -15 -42 -12 -49 17 -43 6 1 5 -4 -2 -11 -9 -9 -9 -17 -1
-33 11 -20 10 -20 -16 -3 -25 17 -26 17 -26 -3 0 -21 33 -60 50 -60 6 0 10
-12 10 -26 0 -15 -4 -23 -10 -19 -13 8 -42 -14 -34 -26 3 -5 -6 -8 -20 -7 -13
1 -22 6 -20 10 3 5 11 5 17 2 9 -5 8 -3 0 6 -10 11 -16 10 -34 -6 -21 -18 -21
-17 1 14 22 29 39 45 25 22 -3 -5 3 -10 15 -10 18 0 16 4 -13 30 -19 17 -40
30 -46 30 -6 0 -15 10 -20 23 -6 16 -9 3 -9 -45 1 -38 5 -68 9 -68 5 0 9 -6 9
-13 0 -15 -41 -37 -68 -37 -15 0 -15 2 -2 10 8 5 11 10 7 10 -5 0 -5 5 -1 12
16 25 12 62 -7 90 -11 15 -24 42 -29 59 -8 27 -6 36 16 62 47 56 67 108 72
187 4 75 4 75 -34 118 -53 62 -65 120 -71 352 l-5 196 26 24 c25 25 36 70 16
70 -25 0 -22 33 6 56 30 24 44 29 44 17z m-1095 -36 c0 -13 -5 -24 -12 -24 -7
0 -11 3 -9 6 2 3 6 14 9 24 9 23 12 22 12 -6z m208 16 c-7 -2 -19 -2 -25 0 -7
3 -2 5 12 5 14 0 19 -2 13 -5z m-433 -23 c-8 -5 -10 -10 -5 -11 6 -1 15 -3 20
-4 6 -2 21 -4 35 -5 18 -2 20 -4 7 -7 -9 -2 -15 -9 -12 -14 4 -5 1 -9 -4 -9
-6 0 -11 7 -11 16 0 8 -5 12 -10 9 -6 -4 -8 -11 -5 -16 4 -5 1 -9 -4 -9 -6 0
-13 0 -16 0 -3 0 -5 3 -4 6 0 4 -5 11 -13 15 -10 7 -10 9 0 9 6 0 11 3 11 8
-3 15 1 22 14 22 8 0 7 -4 -3 -10z m153 3 c-7 -2 -21 -2 -30 0 -10 3 -4 5 12
5 17 0 24 -2 18 -5z m32 -2 c3 -5 2 -12 -3 -15 -5 -3 -9 1 -9 9 0 17 3 19 12
6z m447 -14 c8 -42 -2 -49 -34 -22 -16 14 -35 25 -41 26 -15 1 32 17 54 18 10
1 18 -9 21 -22z m-527 3 c25 -11 -1 -11 -35 0 -20 6 -21 8 -5 8 11 0 29 -3 40
-8z m55 -10 c0 -5 -8 -10 -17 -10 -15 0 -16 2 -3 10 19 12 20 12 20 0z m955
-10 c3 -5 1 -10 -5 -10 -6 0 -8 -4 -5 -10 3 -5 2 -10 -2 -10 -11 0 -33 21 -33
32 0 12 38 10 45 -2z m2516 -177 c22 -50 24 -74 7 -91 -10 -10 -10 -15 1 -21
7 -5 14 -20 14 -35 0 -14 3 -26 7 -26 4 0 12 -17 18 -39 10 -33 9 -45 -9 -87
-17 -38 -19 -51 -10 -66 6 -10 9 -24 5 -30 -4 -7 -3 -8 4 -4 8 5 12 -1 12 -16
0 -38 -12 -68 -23 -61 -6 4 -8 -4 -5 -20 3 -15 1 -24 -4 -21 -5 3 -14 1 -21
-5 -16 -13 -17 -6 -20 249 -1 129 1 200 8 200 7 0 7 3 0 8 -5 4 -11 16 -11 27
-1 11 -3 25 -4 30 -1 6 -1 28 0 50 1 22 4 31 7 20 2 -11 13 -39 24 -62z
m-4144 35 c-3 -7 -5 -2 -5 12 0 14 2 19 5 13 2 -7 2 -19 0 -25z m403 2 c0 -5
-5 -10 -11 -10 -5 0 -7 5 -4 10 3 6 8 10 11 10 2 0 4 -4 4 -10z m49 7 c-2 -1
-14 -11 -26 -21 -13 -11 -23 -16 -23 -13 0 10 31 37 42 37 6 0 9 -1 7 -3z
m-291 -58 c3 -51 16 -61 73 -54 17 3 27 0 24 -5 -4 -6 -18 -10 -33 -10 -22 -1
-24 -2 -11 -10 9 -5 30 -11 47 -12 28 -2 29 -3 15 -24 -14 -22 -37 -25 -66 -8
-7 5 -6 0 3 -11 14 -16 13 -17 -7 -11 -28 9 -39 -10 -20 -32 8 -9 17 -26 19
-37 2 -12 11 -19 21 -19 15 2 16 -1 5 -14 -11 -13 -10 -14 9 -4 21 12 22 11
20 -43 -2 -32 2 -55 8 -55 7 0 7 -3 0 -8 -14 -10 -17 -32 -4 -32 8 0 9 -4 0
-13 -6 -8 -8 -17 -4 -20 3 -4 6 -31 5 -62 0 -35 4 -55 11 -55 7 -1 1 -7 -13
-15 -14 -8 -20 -14 -13 -15 12 0 12 -24 0 -36 -10 -10 -9 -26 1 -20 5 3 9 -1
9 -9 0 -8 -4 -12 -8 -10 -3 3 -9 -6 -11 -20 -3 -15 -1 -25 6 -25 7 0 7 -3 1
-8 -5 -4 -10 -27 -11 -51 0 -25 -6 -47 -12 -49 -6 -2 -8 -10 -5 -18 4 -10 -2
-17 -16 -21 -21 -5 -21 -5 -1 -30 11 -14 17 -29 14 -34 -3 -5 6 -13 20 -19 50
-18 25 -19 -41 0 -45 12 -75 27 -90 45 l-23 26 0 -25 c0 -14 10 -32 23 -41
l22 -16 -25 3 c-16 2 -26 11 -30 28 l-6 25 -6 -27 c-7 -37 10 -125 35 -178 29
-62 87 -135 117 -149 l25 -11 -28 5 c-22 5 -29 1 -37 -20 -6 -16 -18 -26 -32
-26 l-23 -2 23 -4 c12 -2 20 -8 18 -12 -3 -4 5 -8 16 -8 20 -2 20 -1 2 13 -12
9 -13 14 -5 12 27 -7 36 -34 18 -53 -20 -20 -22 -36 -3 -29 8 3 16 -3 19 -15
3 -12 13 -21 22 -21 10 0 13 -5 9 -12 -5 -8 -2 -9 10 -5 10 4 15 3 11 -3 -16
-26 -87 6 -115 53 -19 31 -20 31 -20 7 1 -44 24 -82 64 -104 46 -25 49 -38 12
-51 -24 -8 -31 -6 -46 13 -23 28 -33 28 -26 0 3 -13 3 -17 0 -10 -3 6 -10 9
-16 6 -6 -4 -6 0 0 13 11 21 5 63 -8 63 -5 0 -18 16 -30 36 -12 19 -23 34 -25
32 -1 -2 1 -57 5 -123 5 -79 4 -124 -3 -133 -8 -11 -5 -12 19 -6 84 20 556
183 534 184 -12 0 -11 3 3 11 9 5 21 8 26 5 5 -3 85 19 177 49 93 30 173 55
178 55 5 0 27 9 50 19 60 28 104 44 276 100 85 28 247 83 360 122 113 38 218
74 234 79 16 5 33 15 37 21 5 8 11 8 25 -1 14 -8 14 -10 3 -7 -9 3 -20 2 -25
-3 -14 -13 -72 -34 -964 -341 -96 -34 -209 -71 -250 -84 -41 -13 -111 -37
-155 -53 -44 -17 -187 -65 -317 -109 l-238 -78 0 -72 c0 -42 -4 -73 -10 -73
-17 0 -12 136 5 154 16 16 20 30 6 22 -18 -11 -21 27 -4 39 10 8 15 17 10 21
-4 4 -7 2 -7 -4 0 -7 -4 -12 -9 -12 -12 0 -20 59 -9 66 9 6 4 353 -8 547 -3
53 -3 129 1 168 6 60 10 70 25 66 9 -2 28 2 41 9 22 13 21 13 -20 7 -39 -5
-44 -4 -38 10 4 10 3 17 -2 17 -5 0 -9 65 -10 145 -1 80 -2 149 -2 153 -1 4 0
21 1 37 2 30 2 30 10 5 4 -15 7 15 8 77 0 57 -4 101 -8 98 -4 -3 -7 40 -6 95
2 112 7 123 64 117 17 -1 32 -1 32 3 0 3 15 5 33 5 31 0 32 -1 35 -46z m222
21 c0 -5 -2 -10 -4 -10 -3 0 -8 5 -11 10 -3 6 -1 10 4 10 6 0 11 -4 11 -10z
m-117 -7 c-7 -2 -19 -2 -25 0 -7 3 -2 5 12 5 14 0 19 -2 13 -5z m37 -17 c0 -2
-7 -7 -16 -10 -8 -3 -12 -2 -9 4 6 10 25 14 25 6z m443 -78 c23 4 22 -4 -3
-11 -11 -3 -25 2 -32 11 -11 13 -11 14 2 7 8 -5 23 -8 33 -7z m2407 -38 c0 -5
-5 -10 -11 -10 -5 0 -7 5 -4 10 3 6 8 10 11 10 2 0 4 -4 4 -10z m-84 -41 c-6
-42 -16 -49 -16 -12 0 27 6 43 17 43 2 0 2 -14 -1 -31z m-2610 -136 c2 -7 14
-13 26 -13 18 0 20 -2 8 -10 -13 -8 -13 -11 3 -27 16 -16 17 -16 18 12 l0 30
11 -25 c6 -14 10 -29 9 -35 -10 -35 -8 -81 2 -87 9 -6 9 -8 -1 -8 -10 0 -9 -6
2 -28 8 -15 16 -36 18 -47 1 -11 8 -23 13 -27 6 -5 3 -8 -6 -8 -23 0 -31 -26
-13 -40 8 -8 14 -8 14 -2 0 25 31 20 45 -8 19 -36 19 -57 2 -57 -8 0 -12 9 -9
22 2 12 -4 27 -14 36 -15 12 -16 12 -9 0 5 -9 4 -12 -2 -8 -6 4 -17 -1 -25
-11 -21 -25 -7 -200 21 -262 24 -54 57 -94 70 -85 11 6 28 -22 26 -45 0 -8 5
-21 12 -28 9 -10 10 -19 3 -32 -6 -10 -10 -30 -10 -44 0 -14 -11 -36 -25 -50
-20 -20 -23 -29 -15 -55 11 -39 19 -51 32 -51 6 0 5 7 -3 18 -13 15 -12 16 3
3 10 -7 15 -17 13 -22 -7 -11 24 -27 72 -38 l38 -8 -30 -7 c-16 -4 -39 -12
-49 -18 -17 -9 -25 -5 -49 23 -65 73 -108 119 -112 119 -8 0 -6 -35 3 -45 5
-6 6 -50 2 -100 -4 -49 -8 -82 -8 -73 -3 24 -20 32 -39 16 -12 -9 -15 -9 -9 0
4 6 3 12 -3 12 -5 0 -13 -5 -16 -11 -4 -6 -14 -8 -22 -5 -8 3 -11 1 -8 -4 3
-6 0 -10 -9 -10 -8 0 -16 -4 -18 -9 -1 -4 -14 -11 -28 -15 -22 -5 -23 -5 -5 5
30 16 61 60 69 97 9 40 -5 42 -30 5 -20 -32 -41 -50 -67 -57 -12 -3 -8 6 13
27 36 36 62 81 53 91 -4 3 0 6 8 6 10 0 10 3 3 8 -12 7 -44 76 -44 93 0 5 14
24 31 44 57 64 99 171 99 249 0 39 -1 40 -13 16 -14 -27 -84 -79 -107 -79 -11
0 -10 4 5 15 66 50 78 61 90 84 9 17 10 31 4 41 -7 11 -9 10 -9 -7 0 -24 -44
-69 -83 -83 -35 -13 -79 -15 -59 -2 17 10 17 21 2 31 -8 5 4 11 29 15 23 4 38
11 35 17 -3 5 3 12 14 14 11 3 24 20 30 41 6 19 8 33 5 30 -11 -11 -29 19 -31
52 -2 26 1 32 13 27 9 -3 15 0 15 9 0 8 -9 15 -19 15 -11 0 -23 4 -26 10 -11
18 -18 124 -19 290 -1 150 1 169 19 195 l20 30 8 -75 c5 -41 10 -81 13 -87z
m2689 127 c3 -5 1 -10 -4 -10 -6 0 -11 5 -11 10 0 6 2 10 4 10 3 0 8 -4 11
-10z m-2888 -33 c4 -7 0 -8 -11 -4 -10 4 -22 7 -27 7 -5 0 -9 4 -9 9 0 12 38
2 47 -12z m263 -55 c0 -13 -12 -22 -22 -16 -10 6 -1 24 13 24 5 0 9 -4 9 -8z
m1990 -32 c-9 -6 -10 -10 -3 -10 9 0 9 -8 2 -29 -13 -36 2 -97 38 -158 26 -45
22 -71 -15 -92 -9 -5 -13 -13 -9 -17 5 -5 12 -3 16 4 6 9 12 7 26 -8 10 -11
22 -17 26 -14 5 3 19 2 31 -2 39 -12 -5 -24 -46 -13 -51 14 -54 6 -12 -26 25
-19 44 -26 61 -23 14 3 25 1 25 -3 0 -5 -3 -9 -7 -10 -5 0 -21 -3 -37 -5 -19
-4 -35 1 -50 14 -22 20 -79 52 -93 52 -5 0 -7 -20 -5 -45 2 -25 7 -43 11 -41
3 2 11 -2 17 -8 9 -9 1 -16 -33 -28 -39 -14 -42 -14 -31 0 14 16 12 51 -3 66
-11 12 -12 39 -1 32 4 -2 6 11 4 30 -5 37 54 311 70 332 6 6 16 12 22 12 6 0
4 -5 -4 -10z m550 -16 c0 -8 -4 -12 -10 -9 -5 3 -10 10 -10 16 0 5 5 9 10 9 6
0 10 -7 10 -16z m118 -3 c11 -6 10 -10 -4 -15 -9 -3 -19 -4 -22 -1 -3 3 1 5 9
5 11 0 11 2 -1 10 -8 5 -10 10 -5 10 6 0 16 -4 23 -9z m72 5 c0 -3 -4 -8 -10
-11 -5 -3 -10 -1 -10 4 0 6 5 11 10 11 6 0 10 -2 10 -4z m-2363 -83 c-3 -10
-5 -4 -5 12 0 17 2 24 5 18 2 -7 2 -21 0 -30z m-207 -64 c0 -12 -4 -17 -11
-14 -7 5 -9 -3 -6 -21 3 -17 -1 -34 -10 -42 -13 -13 -14 1 -4 91 2 17 31 5 31
-14z m-40 1 c0 -5 -4 -10 -10 -10 -5 0 -10 5 -10 10 0 6 5 10 10 10 6 0 10 -4
10 -10z m280 -14 c0 -2 -7 -7 -16 -10 -8 -3 -12 -2 -9 4 6 10 25 14 25 6z
m900 -1 c0 -10 -60 -65 -70 -65 -16 0 13 40 32 46 10 3 18 10 18 15 0 5 5 9
10 9 6 0 10 -2 10 -5z m-1996 -77 c8 -5 7 -8 -1 -8 -9 0 -13 -16 -13 -45 0
-36 -3 -43 -16 -38 -11 4 -13 14 -10 34 16 84 19 93 24 79 3 -8 10 -18 16 -22z
m4369 8 c10 -15 0 -80 -13 -84 -5 -2 -8 -8 -4 -13 3 -5 -1 -9 -8 -10 -7 0 -3
-4 10 -9 27 -11 29 -49 5 -91 -15 -24 -15 -33 -5 -49 9 -15 10 -26 2 -40 -6
-11 -13 -20 -16 -20 -3 0 -2 5 1 11 12 18 -4 59 -19 53 -11 -4 -13 0 -9 17 4
15 3 20 -5 15 -7 -4 -12 -2 -12 3 0 6 6 11 13 12 10 0 10 2 0 6 -7 2 -13 11
-13 19 0 8 6 14 13 14 8 0 7 4 -3 10 -12 8 -13 11 -1 19 9 6 10 11 2 15 -15
10 -14 114 2 131 13 15 47 10 60 -9z m-2383 -11 c-13 -14 -30 -25 -39 -25 -9
0 0 11 19 25 45 31 49 31 20 0z m1650 5 c0 -5 -8 -10 -17 -10 -15 0 -16 -2 -3
-10 12 -8 9 -10 -13 -10 -19 0 -26 4 -21 12 5 7 0 9 -14 6 -15 -4 -19 -2 -15
8 6 16 83 20 83 4z m-2505 -10 c3 -5 -3 -10 -14 -10 -12 0 -21 5 -21 10 0 6 6
10 14 10 8 0 18 -4 21 -10z m-331 -26 c3 -8 2 -12 -4 -9 -6 3 -10 10 -10 16 0
14 7 11 14 -7z m36 12 c0 -3 -4 -8 -10 -11 -5 -3 -10 -1 -10 4 0 6 5 11 10 11
6 0 10 -2 10 -4z m687 -18 c-3 -8 -6 -5 -6 6 -1 11 2 17 5 13 3 -3 4 -12 1
-19z m600 -4 c-3 -3 5 -16 17 -28 13 -11 21 -27 19 -33 -7 -19 -16 -16 -31 8
-11 17 -11 20 0 14 7 -4 3 2 -10 12 -22 18 -21 33 1 33 6 0 8 -3 4 -6z m-431
-46 c4 -7 3 -8 -4 -4 -7 4 -12 3 -12 -2 0 -6 7 -13 16 -16 13 -5 14 -9 4 -21
-16 -19 -30 -10 -30 19 0 32 13 45 26 24z m1872 -13 c-3 -3 -9 2 -12 12 -6 14
-5 15 5 6 7 -7 10 -15 7 -18z m-2807 -24 c-6 -10 -8 -21 -6 -25 3 -3 0 -2 -7
3 -8 8 -8 14 2 26 17 21 23 19 11 -4z m2809 -11 c0 -5 -5 -10 -11 -10 -5 0 -7
5 -4 10 3 6 8 10 11 10 2 0 4 -4 4 -10z m111 -17 c-12 -20 -14 -14 -5 12 4 9
9 14 11 11 3 -2 0 -13 -6 -23z m-2904 -12 c0 -11 -5 -18 -9 -15 -4 3 -5 11 -1
19 7 21 12 19 10 -4z m2950 -3 c-3 -8 -6 -5 -6 6 -1 11 2 17 5 13 3 -3 4 -12
1 -19z m-2334 5 c-13 -2 -35 -2 -50 0 -16 2 -5 4 22 4 28 0 40 -2 28 -4z
m1475 -8 c-15 -8 -35 -16 -45 -18 -10 -2 -31 -9 -46 -15 -15 -7 -40 -15 -55
-19 -15 -3 -43 -14 -62 -24 -47 -24 -95 -36 -86 -20 4 6 17 11 28 11 12 0 41
11 64 25 24 14 47 25 51 24 4 -1 15 1 23 4 30 12 135 46 145 46 6 0 -2 -6 -17
-14z m790 -10 c-3 -3 -9 2 -12 12 -6 14 -5 15 5 6 7 -7 10 -15 7 -18z m-2903
-5 c3 -5 1 -10 -4 -10 -6 0 -11 5 -11 10 0 6 2 10 4 10 3 0 8 -4 11 -10z m399
-35 c-9 -14 -26 -31 -37 -37 -14 -7 -10 2 14 30 37 45 50 49 23 7z m566 31 c0
-3 -4 -8 -10 -11 -5 -3 -10 -1 -10 4 0 6 5 11 10 11 6 0 10 -2 10 -4z m1184
-32 c8 -20 10 -17 -34 -31 -19 -6 -80 -28 -135 -48 -55 -21 -110 -38 -122 -39
-11 0 -19 -4 -16 -8 2 -5 0 -8 -5 -8 -5 0 -12 9 -15 21 -5 17 -2 20 14 16 10
-3 17 -2 14 3 -6 10 2 13 150 66 139 49 141 49 149 28z m-2159 -4 c-3 -5 -1
-10 5 -10 7 0 9 -7 6 -17 -4 -10 -4 -14 0 -11 7 8 54 -45 54 -61 0 -6 -5 -11
-11 -11 -6 0 -3 -7 5 -16 9 -8 13 -20 10 -26 -4 -6 -10 -5 -15 3 -10 16 -12 8
-3 -15 5 -12 10 -14 19 -6 9 8 15 8 20 0 4 -6 1 -9 -7 -8 -7 2 -12 -3 -10 -9
1 -7 -2 -13 -6 -13 -28 0 -75 107 -60 134 7 12 6 16 -3 14 -7 -2 -15 5 -17 15
-4 20 4 47 13 47 4 0 3 -4 0 -10z m3815 -10 c20 -6 21 -8 5 -8 -11 0 -29 3
-40 8 -25 11 1 11 35 0z m-231 -51 c-6 -13 -7 -24 -2 -28 14 -9 24 -41 13 -41
-14 0 -24 -62 -10 -70 9 -5 8 -9 -2 -13 -11 -4 -15 10 -16 66 -2 75 3 107 19
107 6 0 5 -9 -2 -21z m-2982 -41 c-19 -12 -34 -9 -17 3 12 9 10 10 -8 6 -19
-4 -21 -3 -12 8 9 11 16 12 30 2 14 -8 16 -13 7 -19z m717 -40 c-9 -14 -24 2
-17 19 5 12 3 14 -7 8 -9 -6 -11 -4 -5 5 6 10 11 9 21 -5 7 -10 11 -22 8 -27z
m-1551 25 c3 -5 -6 -9 -20 -10 -19 -1 -22 1 -12 8 17 11 26 11 32 2z m857 3
c0 -2 -15 -9 -32 -15 -30 -10 -31 -9 -14 4 18 14 46 20 46 11z m-1048 -55
c-10 -6 -8 -10 9 -14 13 -4 21 -9 18 -12 -3 -3 -21 0 -39 7 -30 10 -32 12 -14
19 26 10 42 11 26 0z m1521 -38 c-7 -2 -19 -2 -25 0 -7 3 -2 5 12 5 14 0 19
-2 13 -5z m-1560 -33 c3 -11 1 -20 -4 -20 -5 0 -9 9 -9 20 0 11 2 20 4 20 2 0
6 -9 9 -20z m4107 -7 c0 -28 -20 -71 -20 -45 0 6 -5 12 -11 12 -5 0 -7 -4 -4
-10 3 -5 1 -10 -4 -10 -6 0 -11 5 -11 12 0 6 -2 9 -5 6 -9 -9 7 -38 17 -32 6
4 8 1 6 -7 -3 -8 -1 -22 4 -32 6 -12 4 -24 -7 -39 l-15 -22 0 22 c0 13 -4 21
-9 17 -5 -3 -12 -1 -16 5 -3 6 4 10 17 11 l23 0 -22 9 c-13 5 -23 15 -23 22 0
9 3 9 10 -2 5 -8 12 -12 15 -8 3 3 -1 13 -11 22 -17 18 -12 66 7 66 6 0 7 -4
4 -10 -3 -5 1 -10 10 -10 9 0 13 5 10 10 -10 16 2 40 20 40 10 0 15 -9 15 -27z
m-2192 -20 c-3 -16 -109 -58 -493 -192 -77 -27 -185 -66 -240 -86 -170 -62
-298 -106 -345 -120 -66 -20 -199 -67 -330 -118 -63 -25 -130 -48 -149 -52
-19 -4 -76 -23 -125 -42 -326 -123 -306 -118 -306 -87 0 23 10 28 48 27 7 -1
11 2 8 5 -3 3 18 14 47 24 28 10 63 23 77 28 14 5 61 23 105 40 44 18 86 32
93 33 6 0 12 4 12 9 0 4 11 8 24 8 14 0 27 4 30 9 4 5 25 12 49 16 23 4 47 11
52 15 6 5 13 9 18 9 4 0 21 8 38 17 17 8 33 13 37 10 3 -3 -1 -6 -8 -6 -7 0
-11 -2 -8 -5 2 -3 42 11 89 30 46 19 94 35 107 35 13 0 20 4 17 10 -7 12 40
24 56 14 8 -4 9 -3 5 4 -4 7 -5 12 -2 12 2 0 12 3 22 7 12 4 15 3 10 -5 -5 -8
-2 -10 8 -6 9 3 14 10 11 14 -5 9 83 36 104 32 7 -2 10 1 6 7 -3 6 1 11 11 11
19 0 72 16 119 36 81 34 233 89 525 191 102 35 196 68 210 73 43 15 72 12 68
-7z m-1898 -24 c0 -6 6 -9 13 -6 8 3 12 -7 12 -34 0 -34 -2 -37 -12 -22 -10
13 -10 18 0 25 8 5 6 8 -8 8 -14 0 -21 7 -21 20 0 11 4 20 8 20 4 0 8 -5 8
-11z m613 -26 c-7 -2 -19 -2 -25 0 -7 3 -2 5 12 5 14 0 19 -2 13 -5z m1267 -3
c-20 -13 -142 -51 -147 -46 -4 4 133 54 152 55 6 0 3 -4 -5 -9z m-1283 -67
c-3 -10 -5 -4 -5 12 0 17 2 24 5 18 2 -7 2 -21 0 -30z m313 2 c0 -7 8 -16 18
-18 13 -4 11 -5 -5 -6 -13 0 -23 3 -23 8 0 5 -3 17 -7 27 -4 12 -3 15 5 10 7
-4 12 -13 12 -21z m2508 -5 c1 -15 -1 -20 -6 -12 -5 6 -17 19 -28 27 -18 14
-18 14 6 13 20 -2 26 -8 28 -28z m-1698 15 c0 -6 -70 -35 -84 -34 -6 0 9 9 34
19 53 22 50 21 50 15z m2450 -48 c-19 -18 -27 -23 -20 -12 27 38 43 55 49 50
3 -3 -10 -20 -29 -38z m-4035 13 c16 -7 14 -8 -12 -7 -17 1 -29 5 -26 10 5 9
12 8 38 -3z m415 -10 c0 -5 6 -7 14 -4 10 4 13 0 12 -13 -4 -24 12 -43 36 -43
10 0 16 -4 13 -10 -4 -6 7 -8 27 -5 32 5 32 5 6 -5 -57 -23 -150 28 -132 74 7
17 24 22 24 6z m230 -10 c-6 -11 -13 -20 -16 -20 -2 0 0 9 6 20 6 11 13 20 16
20 2 0 0 -9 -6 -20z m181 0 c5 0 8 -5 7 -12 -2 -6 7 -14 18 -17 16 -4 19 -9
10 -16 -8 -8 -21 -1 -46 24 -19 20 -27 32 -16 28 10 -4 22 -7 27 -7z m-134
-19 c-3 -14 -1 -18 10 -14 13 5 13 2 4 -15 -7 -12 -14 -22 -17 -22 -3 0 -3 4
0 9 4 5 1 11 -5 13 -7 2 -9 13 -5 26 9 27 20 29 13 3z m673 -11 c-30 -11 -57
-19 -60 -19 -14 2 78 38 95 38 11 0 -5 -9 -35 -19z m1935 -82 c-1 -22 -6 -28
-23 -28 -12 0 -12 43 0 58 14 16 24 2 23 -30z m-2958 6 c0 -7 -5 -10 -10 -7
-5 3 -13 -1 -18 -8 -7 -11 -9 -11 -9 2 0 19 6 26 23 26 8 0 14 -6 14 -13z
m748 -19 c-16 -8 -39 -14 -50 -14 -11 0 -2 6 20 14 52 17 68 17 30 0z m-95
-29 c-14 -7 -36 -16 -50 -20 -14 -3 -7 3 15 13 45 22 73 27 35 7z m2480 -18
c0 -6 3 -8 6 -5 4 4 16 -4 28 -17 12 -13 30 -26 41 -29 18 -4 18 -5 -2 -6 -12
0 -27 -9 -32 -20 -11 -20 -41 -36 -41 -21 0 5 8 11 18 14 9 3 3 4 -14 3 -29
-3 -31 -1 -29 27 2 17 3 39 4 49 1 19 21 24 21 5z m-2585 -23 c-16 -8 -37 -14
-45 -14 -8 0 -1 6 15 14 17 7 37 13 45 13 8 0 2 -6 -15 -13z m2412 -7 c-3 -8
-6 -5 -6 6 -1 11 2 17 5 13 3 -3 4 -12 1 -19z m43 -4 c0 -14 -5 -24 -11 -22
-6 2 -10 7 -10 11 1 4 1 14 1 22 0 8 5 15 10 15 6 0 10 -12 10 -26z m339 2
c-2 -2 -15 -9 -29 -16 -23 -12 -24 -12 -11 3 7 10 20 17 29 17 8 0 13 -2 11
-4z m141 -6 c0 -5 -10 -10 -22 -10 -19 0 -20 2 -8 10 19 13 30 13 30 0z
m-3040 -20 c-8 -5 -19 -10 -25 -10 -5 0 -3 5 5 10 8 5 20 10 25 10 6 0 3 -5
-5 -10z m2830 0 c-8 -5 -22 -9 -30 -9 -10 0 -8 3 5 9 27 12 43 12 25 0z m-250
-9 c0 -12 -20 -25 -27 -18 -7 7 6 27 18 27 5 0 9 -4 9 -9z m457 3 c-3 -3 -12
-4 -19 -1 -8 3 -5 6 6 6 11 1 17 -2 13 -5z m-3087 -14 c-20 -13 -33 -13 -25 0
3 6 14 10 23 10 15 0 15 -2 2 -10z m2827 4 c-3 -3 -12 -4 -19 -1 -8 3 -5 6 6
6 11 1 17 -2 13 -5z m220 0 c-3 -3 -12 -4 -19 -1 -8 3 -5 6 6 6 11 1 17 -2 13
-5z m-3090 -20 c-3 -3 -12 -4 -19 -1 -8 3 -5 6 6 6 11 1 17 -2 13 -5z m2740
-10 c-3 -3 -12 -4 -19 -1 -8 3 -5 6 6 6 11 1 17 -2 13 -5z m256 -9 c-3 -9 -8
-14 -10 -11 -3 3 -2 9 2 15 9 16 15 13 8 -4z m244 -10 c-9 -7 -14 -14 -11 -18
3 -3 -4 -8 -16 -12 -12 -4 -24 -4 -27 -1 -4 3 2 6 13 6 15 0 16 2 5 9 -11 7
-9 10 8 16 12 3 19 11 16 16 -3 5 2 6 11 2 15 -6 15 -7 1 -18z m-574 8 c-7 -2
-19 -2 -25 0 -7 3 -2 5 12 5 14 0 19 -2 13 -5z m227 -4 c0 -13 -68 -41 -81
-33 -13 7 38 42 64 43 9 1 17 -4 17 -10z m160 1 c0 -5 -9 -10 -20 -10 -11 0
-20 5 -20 10 0 6 9 10 20 10 11 0 20 -4 20 -10z m-3713 -6 c-3 -3 -12 -4 -19
-1 -8 3 -5 6 6 6 11 1 17 -2 13 -5z m542 -8 c-5 -5 -298 -116 -307 -116 -16 0
18 15 149 65 133 50 169 62 158 51z m2793 -3 c-6 -2 -10 -9 -6 -14 3 -5 -2 -9
-10 -9 -17 0 -29 14 -19 24 3 3 16 6 27 5 12 0 15 -3 8 -6z m48 -3 c-8 -5 -19
-10 -25 -10 -5 0 -3 5 5 10 8 5 20 10 25 10 6 0 3 -5 -5 -10z m220 0 c0 -5
-11 -10 -25 -10 -16 0 -25 -6 -25 -15 0 -8 -7 -15 -15 -15 -25 0 -17 25 13 37
36 14 52 15 52 3z m-187 -30 c-4 -14 -13 -20 -32 -19 -18 1 -20 3 -8 6 11 3
16 11 13 18 -3 10 0 12 11 8 12 -5 14 -3 8 7 -5 8 -4 11 3 7 5 -4 8 -16 5 -27z
m307 20 c3 -2 8 -2 13 -1 4 0 7 -4 7 -10 0 -7 -9 -9 -22 -5 -13 3 -31 6 -41 6
-10 0 -15 4 -12 10 5 8 34 8 55 0z m-3900 -77 c0 -2 -4 -1 -10 2 -5 3 -10 1
-10 -6 0 -21 -11 -3 -16 27 l-5 28 20 -23 c12 -13 21 -26 21 -28z m3266 11
c68 -27 78 -29 68 -12 -5 7 -3 8 5 4 7 -5 10 -10 7 -14 -3 -3 2 -11 12 -18 14
-11 15 -13 2 -14 -9 0 -20 4 -25 8 -23 20 -160 62 -203 62 -34 0 -43 3 -32 10
21 14 94 2 166 -26z m130 12 c0 -13 -5 -22 -10 -19 -4 3 -12 0 -16 -7 -5 -8
-9 -7 -13 5 -4 9 -3 14 1 11 5 -3 15 4 22 15 18 24 18 24 16 -5z m721 -11 c3
-9 -24 -11 -75 -6 -7 0 -10 6 -7 12 8 13 77 8 82 -6z m57 0 c-6 -14 10 -19 53
-18 7 1 10 -4 7 -9 -3 -5 -12 -7 -20 -4 -9 3 -11 0 -7 -11 4 -11 2 -14 -8 -11
-8 3 -13 10 -12 16 1 5 -4 13 -12 16 -8 3 -14 2 -14 -2 1 -4 1 -14 0 -22 -1
-13 -2 -13 -11 0 -8 13 -10 12 -10 -4 0 -11 -2 -17 -5 -14 -8 8 7 68 16 63 4
-3 10 -1 14 5 9 15 15 12 9 -5z m-204 -7 c0 -4 -15 -9 -32 -10 -18 -1 -42 -2
-53 -3 -32 -2 -42 9 -15 15 37 9 100 8 100 -2z m-756 -26 c33 -8 55 -17 48
-20 -7 -2 -34 4 -62 13 -57 19 -118 21 -170 5 -59 -17 -55 -7 7 16 42 15 84
12 177 -14z m431 -19 c28 -9 61 -24 75 -33 14 -9 31 -15 37 -13 7 3 16 -2 19
-11 3 -9 17 -16 30 -16 13 0 24 -4 24 -9 0 -5 10 -11 23 -15 12 -3 39 -16 60
-29 36 -22 37 -24 21 -38 -15 -12 -17 -12 -9 0 6 11 2 10 -16 -2 -13 -9 -39
-16 -59 -16 l-35 1 30 8 c20 5 24 8 10 9 -11 1 -27 6 -35 11 -11 7 -5 8 20 3
33 -6 34 -5 18 10 -9 9 -24 14 -32 11 -11 -4 -16 -1 -16 10 0 9 -8 16 -19 16
-11 0 -23 5 -26 10 -5 8 -12 7 -22 -1 -12 -10 -16 -10 -23 0 -4 8 -12 11 -17
8 -4 -3 -19 1 -33 10 -14 8 -17 12 -8 9 18 -5 42 16 31 27 -11 11 -61 8 -65
-4 -7 -20 -95 -16 -115 5 -12 12 -13 16 -3 10 22 -12 54 -13 62 0 5 8 8 7 8
-1 0 -7 7 -13 16 -13 13 0 14 3 5 14 -9 11 -9 15 1 19 7 3 -16 3 -52 1 -79 -5
-116 -19 -123 -45 -3 -13 -11 -17 -21 -13 -18 7 -16 31 2 27 6 -2 9 3 6 11 -6
16 16 35 62 51 39 13 75 8 169 -22z m315 17 c12 -8 11 -10 -7 -10 -13 0 -23 5
-23 10 0 13 11 13 30 0z m85 -10 c-3 -5 -11 -10 -16 -10 -6 0 -7 5 -4 10 3 6
11 10 16 10 6 0 7 -4 4 -10z m35 -10 c0 -23 -32 -43 -54 -34 -24 9 -7 26 20
20 19 -5 24 -2 24 14 0 11 2 20 5 20 3 0 5 -9 5 -20z m-3715 0 c-3 -5 -18 -10
-33 -9 l-27 1 25 8 c35 11 42 11 35 0z m2985 -45 c0 -11 -19 -4 -41 15 l-24
21 33 -16 c17 -8 32 -18 32 -20z m-3101 5 c-22 -13 -212 -80 -224 -79 -15 0
208 88 225 88 13 0 13 -1 -1 -9z m3228 -6 c-3 -3 -12 -4 -19 -1 -8 3 -5 6 6 6
11 1 17 -2 13 -5z m150 -51 c-15 -16 -17 -16 -17 -1 0 9 6 18 13 21 20 7 22
-2 4 -20z m470 -9 c-3 -3 -12 -4 -19 -1 -8 3 -5 6 6 6 11 1 17 -2 13 -5z
m-4091 -26 c4 -6 3 -8 -4 -4 -6 3 -13 2 -17 -4 -3 -5 -18 -10 -33 -9 -26 0
-25 1 8 14 19 7 36 14 37 14 1 1 5 -4 9 -11z m3984 -28 c0 -5 -7 -7 -15 -4 -8
4 -15 8 -15 10 0 2 7 4 15 4 8 0 15 -4 15 -10z m-4080 -30 c0 -11 -4 -20 -10
-20 -5 0 -10 9 -10 20 0 11 5 20 10 20 6 0 10 -9 10 -20z m4010 0 c-11 -7 -4
-10 25 -10 29 0 36 3 25 10 -13 8 -13 10 2 10 12 0 16 -8 16 -29 -1 -30 -17
-41 -62 -41 -15 0 -16 3 -6 14 6 8 21 17 33 20 16 3 13 4 -8 4 -50 0 -55 1
-55 17 0 9 9 15 23 15 18 0 19 -2 7 -10z m244 -6 c3 -8 2 -12 -4 -9 -6 3 -10
10 -10 16 0 14 7 11 14 -7z m-114 -24 c8 -5 11 -10 5 -10 -5 0 -20 -3 -31 -6
-14 -4 -23 0 -27 10 -7 18 28 22 53 6z m-4141 -37 c-1 -21 -5 -49 -9 -63 -6
-19 -8 -9 -9 38 -1 35 3 62 9 62 6 0 10 -17 9 -37z m4341 33 c0 -3 -4 -8 -10
-11 -5 -3 -10 -1 -10 4 0 6 5 11 10 11 6 0 10 -2 10 -4z m55 -16 c-3 -5 -12
-10 -20 -10 -8 0 -17 5 -20 10 -4 6 5 10 20 10 15 0 24 -4 20 -10z m-1165 -21
c0 -5 -4 -8 -9 -5 -5 3 -12 -1 -15 -10 -4 -9 -9 -14 -13 -11 -7 8 15 37 28 37
5 0 9 -5 9 -11z m907 -25 c-3 -3 -12 -4 -19 -1 -8 3 -5 6 6 6 11 1 17 -2 13
-5z m-647 -11 c0 -5 -5 -15 -10 -23 -8 -12 -10 -11 -10 8 0 12 5 22 10 22 6 0
10 -3 10 -7z m-312 -28 c-6 -14 -13 -23 -16 -21 -7 7 9 46 18 46 5 0 4 -11 -2
-25z m4 -52 c-6 -2 -9 -10 -6 -15 4 -7 2 -8 -5 -4 -13 9 -5 26 12 25 9 0 8 -2
-1 -6z"/>
<path d="M980 2220 c8 -5 20 -10 25 -10 6 0 3 5 -5 10 -8 5 -19 10 -25 10 -5
0 -3 -5 5 -10z"/>
<path d="M1007 2043 c-25 -7 -18 -46 11 -58 l24 -10 -20 -19 c-20 -17 -21 -17
-16 6 2 12 2 18 -2 11 -3 -7 -12 -9 -20 -6 -8 3 -14 0 -14 -7 0 -6 -4 -8 -10
-5 -5 3 -10 1 -10 -4 0 -6 5 -11 12 -11 6 0 4 -6 -7 -13 -10 -8 -15 -19 -12
-24 8 -12 57 -5 57 8 0 12 34 43 51 47 8 2 1 -8 -15 -23 l-29 -25 25 0 c23 0
38 16 38 41 0 5 -13 21 -30 36 -16 14 -30 31 -30 37 0 6 5 4 10 -4 8 -12 10
-11 10 8 0 12 -1 21 -2 21 -2 -1 -11 -3 -21 -6z m-37 -127 c0 -3 -4 -8 -10
-11 -5 -3 -10 -1 -10 4 0 6 5 11 10 11 6 0 10 -2 10 -4z"/>
<path d="M857 1946 c-4 -10 -1 -13 8 -9 8 3 12 9 9 14 -7 12 -11 11 -17 -5z"/>
<path d="M1032 1735 c-16 -19 -3 -19 22 0 14 11 16 15 5 15 -8 -1 -20 -7 -27
-15z"/>
<path d="M1383 1505 c0 -8 4 -12 9 -9 4 3 8 9 8 15 0 5 -4 9 -8 9 -5 0 -9 -7
-9 -15z"/>
<path d="M1376 1451 c-3 -5 1 -11 9 -14 9 -4 12 -1 8 9 -6 16 -10 17 -17 5z"/>
<path d="M1421 1374 c0 -11 3 -14 6 -6 3 7 2 16 -1 19 -3 4 -6 -2 -5 -13z"/>
<path d="M1460 1258 c0 -4 4 -8 9 -8 6 0 12 4 15 8 3 5 -1 9 -9 9 -8 0 -15 -4
-15 -9z"/>
<path d="M4534 1675 c-4 -8 -11 -12 -17 -8 -6 3 -7 1 -3 -5 5 -9 13 -9 27 -2
11 6 17 15 14 21 -9 13 -15 11 -21 -6z"/>
<path d="M536 1405 c-15 -8 -31 -13 -35 -11 -3 2 -15 -2 -26 -10 -10 -8 -14
-14 -8 -14 7 0 14 4 17 9 3 4 17 7 31 6 16 -2 23 1 18 8 -4 6 0 8 10 4 9 -3
18 0 21 9 7 17 7 17 -28 -1z"/>
<path d="M393 1230 c0 -36 2 -50 4 -32 2 17 2 47 0 65 -2 17 -4 3 -4 -33z"/>
<path d="M550 621 c0 -10 19 -25 25 -20 1 2 -3 10 -11 17 -8 7 -14 8 -14 3z"/>
<path d="M906 1485 c4 -8 10 -12 15 -9 11 6 2 24 -11 24 -5 0 -7 -7 -4 -15z"/>
<path d="M880 1405 c-11 -13 -10 -14 4 -9 9 3 16 10 16 15 0 13 -6 11 -20 -6z"/>
<path d="M1020 1111 c0 -6 4 -13 10 -16 6 -3 7 1 4 9 -7 18 -14 21 -14 7z"/>
<path d="M872 730 c7 -11 17 -20 22 -20 5 0 1 9 -9 20 -10 11 -20 20 -22 20
-2 0 2 -9 9 -20z"/>
<path d="M2840 1520 c0 -5 5 -10 11 -10 5 0 7 5 4 10 -3 6 -8 10 -11 10 -2 0
-4 -4 -4 -10z"/>
<path d="M2820 1500 c8 -5 20 -10 25 -10 6 0 3 5 -5 10 -8 5 -19 10 -25 10 -5
0 -3 -5 5 -10z"/>
<path d="M4540 1421 c0 -6 4 -13 10 -16 6 -3 7 1 4 9 -7 18 -14 21 -14 7z"/>
<path d="M4531 1384 c0 -11 3 -14 6 -6 3 7 2 16 -1 19 -3 4 -6 -2 -5 -13z"/>
<path d="M4130 680 c0 -5 5 -10 10 -10 6 0 10 5 10 10 0 6 -4 10 -10 10 -5 0
-10 -4 -10 -10z"/>
<path d="M2040 4800 c-27 -9 -25 -9 32 -14 6 -1 13 5 16 12 4 13 -10 14 -48 2z"/>
<path d="M3064 4794 c3 -9 6 -56 6 -105 0 -49 4 -89 9 -89 4 0 7 10 6 23 -1
12 -3 59 -4 105 -1 52 -5 82 -12 82 -6 0 -8 -7 -5 -16z"/>
<path d="M3361 4794 c0 -11 3 -14 6 -6 3 7 2 16 -1 19 -3 4 -6 -2 -5 -13z"/>
<path d="M1968 4783 c7 -3 16 -2 19 1 4 3 -2 6 -13 5 -11 0 -14 -3 -6 -6z"/>
<path d="M2375 4780 c3 -5 8 -10 11 -10 2 0 4 5 4 10 0 6 -5 10 -11 10 -5 0
-7 -4 -4 -10z"/>
<path d="M4261 4567 c1 -127 5 -230 11 -233 9 -6 0 446 -9 456 -2 2 -3 -98 -2
-223z"/>
<path d="M1856 4765 c3 -8 12 -11 21 -8 9 4 14 2 10 -3 -3 -5 3 -10 13 -10 10
0 16 4 14 8 -3 4 0 8 5 8 6 0 11 5 11 11 0 8 -4 8 -14 0 -9 -8 -21 -8 -39 -2
-21 8 -25 7 -21 -4z"/>
<path d="M2322 4748 c6 -18 28 -21 28 -4 0 9 -7 16 -16 16 -9 0 -14 -5 -12
-12z"/>
<path d="M2352 4696 c1 -16 10 -31 18 -33 9 -3 11 -1 5 4 -5 4 -12 17 -13 28
-6 32 -14 33 -10 1z"/>
<path d="M3362 4670 c0 -14 2 -19 5 -12 2 6 2 18 0 25 -3 6 -5 1 -5 -13z"/>
<path d="M2657 4633 c-56 -4 -122 -30 -118 -46 1 -5 -10 -20 -26 -34 -15 -14
-23 -23 -17 -19 18 9 24 -19 13 -59 -6 -19 -8 -43 -5 -53 3 -9 8 -36 11 -59 3
-24 15 -61 26 -83 12 -23 19 -51 17 -65 -3 -13 3 -36 12 -51 l18 -26 13 36 c7
20 16 36 20 36 3 0 17 -14 30 -32 58 -76 63 -80 110 -69 24 6 63 11 87 11 27
0 42 5 42 13 0 8 3 9 8 1 4 -6 17 -13 28 -16 17 -4 20 -2 17 13 -3 9 7 57 21
106 14 48 28 111 32 138 3 28 10 60 16 72 6 12 8 32 5 45 -7 27 -80 104 -116
122 -29 15 -156 25 -244 19z m43 -23 c0 -5 -4 -10 -10 -10 -5 0 -10 5 -10 10
0 6 5 10 10 10 6 0 10 -4 10 -10z m121 -5 c26 -12 28 -15 9 -11 -14 3 -32 1
-40 -4 -12 -8 -13 -10 -1 -10 8 0 12 -2 9 -5 -3 -3 -16 -2 -28 3 -24 9 -24 9
5 16 23 6 26 9 14 17 -22 14 -5 11 32 -6z m64 5 c8 -13 -15 -13 -35 0 -12 8
-11 10 7 10 12 0 25 -4 28 -10z m-122 -7 c-7 -2 -21 -2 -30 0 -10 3 -4 5 12 5
17 0 24 -2 18 -5z m154 -30 c0 -10 -4 -10 -16 -1 -9 7 -18 13 -20 15 -2 1 5 1
16 0 11 0 20 -7 20 -14z m-272 -3 c3 -6 -1 -7 -9 -4 -18 7 -21 14 -7 14 6 0
13 -4 16 -10z m-101 -226 c8 -21 8 -24 -3 -24 -5 0 -11 9 -14 20 -6 24 8 27
17 4z"/>
<path d="M3082 4315 c0 -16 2 -22 5 -12 2 9 2 23 0 30 -3 6 -5 -1 -5 -18z"/>
<path d="M4268 4308 c-6 -17 1 -260 7 -266 3 -3 5 58 5 136 0 135 -2 158 -12
130z"/>
<path d="M3082 4255 c0 -16 2 -22 5 -12 2 9 2 23 0 30 -3 6 -5 -1 -5 -18z"/>
<path d="M1990 4195 c7 -8 10 -23 8 -33 -4 -12 1 -18 13 -19 15 -1 19 5 19 35
0 29 -3 34 -11 22 -8 -11 -12 -12 -16 -2 -2 6 -9 12 -15 12 -6 0 -6 -6 2 -15z"/>
<path d="M2621 4024 c0 -11 3 -14 6 -6 3 7 2 16 -1 19 -3 4 -6 -2 -5 -13z"/>
<path d="M4274 3920 c0 -52 1 -74 3 -47 2 26 2 68 0 95 -2 26 -3 4 -3 -48z"/>
<path d="M4291 3994 c0 -11 3 -14 6 -6 3 7 2 16 -1 19 -3 4 -6 -2 -5 -13z"/>
<path d="M20 3977 c0 -10 8 -17 18 -17 9 0 13 4 7 8 -5 4 -13 11 -17 16 -5 5
-8 2 -8 -7z"/>
<path d="M4293 3930 c0 -25 2 -35 4 -22 2 12 2 32 0 45 -2 12 -4 2 -4 -23z"/>
<path d="M3401 3884 c0 -11 3 -14 6 -6 3 7 2 16 -1 19 -3 4 -6 -2 -5 -13z"/>
<path d="M4276 3529 c3 -151 8 -276 10 -278 12 -13 15 16 7 78 -5 39 -7 71 -4
71 7 0 -6 390 -14 398 -3 3 -2 -118 1 -269z"/>
<path d="M1765 3780 c19 -8 73 -14 64 -6 -2 2 -22 6 -44 9 -28 5 -34 4 -20 -3z"/>
<path d="M1850 3755 c7 -8 10 -22 6 -30 -3 -10 3 -17 19 -21 14 -3 22 -10 19
-15 -3 -5 -10 -7 -15 -4 -5 4 -9 2 -9 -4 0 -16 18 -22 23 -9 3 9 10 7 21 -7
10 -13 14 -15 11 -4 -4 10 3 20 17 27 13 6 17 11 11 11 -7 1 -13 7 -13 15 0 8
-4 18 -10 21 -5 3 -7 0 -4 -9 3 -8 1 -23 -5 -33 -6 -10 -11 -12 -11 -5 0 7
-10 17 -22 22 l-23 9 23 0 c30 1 28 25 -3 39 -36 17 -50 15 -35 -3z"/>
<path d="M2168 3713 c7 -3 16 -2 19 1 4 3 -2 6 -13 5 -11 0 -14 -3 -6 -6z"/>
<path d="M1042 3706 c3 -4 0 -19 -8 -34 -14 -28 -12 -38 5 -27 6 3 9 11 6 16
-4 5 -1 9 4 9 15 0 14 27 -1 36 -7 4 -10 4 -6 0z"/>
<path d="M1621 3699 c-13 -5 -21 -12 -18 -15 3 -3 15 0 27 6 16 9 25 9 36 -1
12 -10 13 -9 8 5 -7 18 -18 19 -53 5z"/>
<path d="M2257 3679 c7 -7 15 -10 18 -7 3 3 -2 9 -12 12 -14 6 -15 5 -6 -5z"/>
<path d="M1997 3659 c7 -7 15 -10 18 -7 3 3 -2 9 -12 12 -14 6 -15 5 -6 -5z"/>
<path d="M362 3635 c0 -16 2 -22 5 -12 2 9 2 23 0 30 -3 6 -5 -1 -5 -18z"/>
<path d="M1900 3641 c0 -10 19 -25 25 -20 1 2 -3 10 -11 17 -8 7 -14 8 -14 3z"/>
<path d="M1172 3620 c0 -14 2 -19 5 -12 2 6 2 18 0 25 -3 6 -5 1 -5 -13z"/>
<path d="M1966 3612 c-2 -4 4 -8 14 -8 10 0 16 4 14 8 -3 4 -9 8 -14 8 -5 0
-11 -4 -14 -8z"/>
<path d="M0 3556 c0 -51 2 -56 15 -42 19 18 19 55 0 80 -14 18 -15 15 -15 -38z"/>
<path d="M2212 3590 c0 -14 2 -19 5 -12 2 6 2 18 0 25 -3 6 -5 1 -5 -13z"/>
<path d="M1176 3575 c4 -8 8 -15 10 -15 2 0 4 7 4 15 0 8 -4 15 -10 15 -5 0
-7 -7 -4 -15z"/>
<path d="M1856 3557 c3 -10 9 -15 12 -12 3 3 0 11 -7 18 -10 9 -11 8 -5 -6z"/>
<path d="M1970 3561 c0 -6 4 -13 10 -16 6 -3 7 1 4 9 -7 18 -14 21 -14 7z"/>
<path d="M2012 3530 c0 -19 2 -27 5 -17 2 9 2 25 0 35 -3 9 -5 1 -5 -18z"/>
<path d="M1673 3505 c0 -11 9 -14 34 -12 18 2 36 6 39 10 3 3 -6 4 -20 3 -15
-2 -29 1 -32 5 -8 14 -21 10 -21 -6z"/>
<path d="M365 3490 c-3 -5 -1 -10 4 -10 6 0 11 5 11 10 0 6 -2 10 -4 10 -3 0
-8 -4 -11 -10z"/>
<path d="M1472 3474 c-7 -8 -8 -14 -3 -14 10 0 25 19 20 25 -2 1 -10 -3 -17
-11z"/>
<path d="M1674 3471 c6 -10 -32 -37 -46 -33 -12 3 -9 -13 4 -26 18 -18 30 -14
23 8 -7 23 10 28 19 5 7 -20 21 -19 23 3 1 9 3 24 5 31 2 8 -5 17 -16 19 -11
2 -16 0 -12 -7z"/>
<path d="M1735 3460 c3 -5 8 -10 11 -10 2 0 4 5 4 10 0 6 -5 10 -11 10 -5 0
-7 -4 -4 -10z"/>
<path d="M1802 3450 c7 -10 14 -18 15 -16 6 6 -9 36 -18 36 -5 0 -4 -9 3 -20z"/>
<path d="M1 3428 c-1 -39 4 -44 28 -29 10 6 10 10 1 16 -6 4 -15 17 -20 29 -7
17 -9 15 -9 -16z"/>
<path d="M40 3430 c0 -5 5 -10 11 -10 5 0 7 5 4 10 -3 6 -8 10 -11 10 -2 0 -4
-4 -4 -10z"/>
<path d="M1871 3404 c0 -11 3 -14 6 -6 3 7 2 16 -1 19 -3 4 -6 -2 -5 -13z"/>
<path d="M810 3398 c0 -4 6 -8 14 -8 8 0 17 4 20 8 2 4 -4 8 -15 8 -10 0 -19
-4 -19 -8z"/>
<path d="M790 3374 c0 -15 3 -23 8 -18 4 5 10 11 13 14 4 3 1 11 -7 18 -12 11
-14 8 -14 -14z"/>
<path d="M1678 3393 c7 -3 16 -2 19 1 4 3 -2 6 -13 5 -11 0 -14 -3 -6 -6z"/>
<path d="M887 3379 c-9 -6 -26 -7 -37 -4 -11 4 -20 2 -20 -4 0 -6 3 -10 8 -10
21 4 32 -3 32 -17 0 -12 -4 -14 -12 -7 -24 17 -53 10 -50 -12 5 -26 2 -24 45
-29 41 -6 67 1 67 16 0 6 -6 5 -15 -2 -8 -7 -16 -10 -16 -6 -6 26 -4 53 4 64
14 18 26 15 20 -7 -3 -10 0 -22 6 -25 6 -4 9 -1 5 7 -3 8 0 18 6 22 9 6 9 10
-1 16 -17 11 -20 11 -42 -2z"/>
<path d="M2 3174 c1 -96 5 -152 12 -156 8 -5 7 -8 -1 -8 -7 0 -13 -11 -13 -25
0 -14 6 -25 13 -25 8 0 8 -3 1 -8 -6 -4 -11 -45 -11 -94 -1 -75 1 -88 15 -89
13 0 13 -2 -3 -9 -13 -6 -15 -9 -5 -9 10 -1 11 -4 4 -9 -13 -8 -14 -162 -2
-162 4 0 11 -18 14 -40 4 -22 11 -43 16 -46 6 -4 5 -10 -3 -15 -11 -6 -17 4
-25 44 -11 51 -11 49 -12 -53 -1 -66 2 -99 8 -90 8 12 10 12 16 -3 3 -9 10
-17 15 -17 4 0 6 7 3 15 -4 8 -2 15 4 15 6 0 13 -6 15 -12 3 -7 5 19 4 57 -1
39 -6 73 -12 77 -5 4 0 8 13 8 12 0 22 5 22 10 0 6 -9 10 -19 10 -14 0 -18 5
-14 19 3 13 -1 21 -14 24 -14 4 -15 5 -2 6 9 0 19 11 23 24 9 33 8 37 -12 31
-14 -5 -15 -4 -2 5 18 12 23 101 6 101 -8 0 -8 2 0 8 7 4 14 18 16 32 2 14 9
24 16 22 16 -3 15 1 -9 29 -11 13 -18 31 -16 41 3 11 -4 20 -22 28 l-26 10 25
-5 c24 -4 25 -2 24 43 -1 35 2 49 15 54 13 5 13 7 -4 7 -17 1 -18 3 -5 11 13
8 13 11 1 19 -11 7 -9 10 9 16 l23 7 -24 14 c-15 8 -18 13 -9 14 13 0 13 1 0
10 -10 6 -11 10 -2 10 18 0 15 27 -4 34 -10 4 -14 14 -11 26 3 11 1 22 -4 25
-4 3 -4 17 1 31 13 32 12 35 -2 32 -6 -2 -17 7 -23 20 -7 12 -15 25 -18 29 -4
3 -6 -61 -5 -143z m35 -280 c-3 -3 -12 -4 -19 -1 -8 3 -5 6 6 6 11 1 17 -2 13
-5z m10 -270 c-3 -3 -12 -4 -19 -1 -8 3 -5 6 6 6 11 1 17 -2 13 -5z"/>
<path d="M1120 3311 c0 -6 4 -13 10 -16 6 -3 7 1 4 9 -7 18 -14 21 -14 7z"/>
<path d="M1838 3278 c2 -10 8 -18 12 -18 5 0 12 -9 15 -21 4 -12 12 -18 21
-15 7 3 16 1 19 -5 4 -5 3 -9 -2 -8 -30 5 -33 -3 -33 -101 0 -73 3 -100 13
-100 7 0 8 -3 2 -8 -9 -6 -12 -34 -7 -85 2 -15 4 -16 16 -5 8 8 10 15 4 17 -6
2 -4 7 3 12 8 5 9 9 3 9 -7 0 -10 20 -7 60 4 46 2 60 -9 61 -7 1 1 5 17 9 24
6 26 8 8 9 -13 0 -23 4 -24 9 0 4 -2 28 -3 55 -2 39 1 47 16 47 10 0 18 -8 19
-17 0 -11 3 -13 6 -5 5 14 43 17 43 3 0 -5 -8 -12 -17 -14 -14 -4 -12 -5 5 -6
12 0 22 -5 22 -10 0 -5 9 -11 19 -14 14 -3 19 -12 17 -31 -2 -15 0 -29 4 -31
9 -6 18 83 10 94 -3 3 -16 12 -30 18 -23 11 -22 12 20 13 33 1 40 3 25 9 -11
5 -23 7 -27 4 -5 -2 -8 0 -8 6 0 6 -22 17 -48 25 -27 7 -67 23 -89 33 -39 19
-40 19 -35 1z m157 -58 c8 -13 -5 -13 -25 0 -13 8 -13 10 2 10 9 0 20 -4 23
-10z m10 -68 c-8 -8 -25 10 -19 20 4 6 9 5 15 -3 4 -7 6 -15 4 -17z"/>
<path d="M792 3270 c0 -14 2 -19 5 -12 2 6 2 18 0 25 -3 6 -5 1 -5 -13z"/>
<path d="M874 3261 c0 -11 4 -17 8 -15 4 3 8 12 8 20 0 8 -4 14 -8 14 -4 0 -8
-9 -8 -19z"/>
<path d="M840 3250 c0 -5 5 -10 11 -10 5 0 7 5 4 10 -3 6 -8 10 -11 10 -2 0
-4 -4 -4 -10z"/>
<path d="M4288 3018 c3 -172 7 -226 18 -238 12 -12 14 -10 13 20 -1 32 -2 33
-9 10 -5 -14 -8 73 -9 203 -1 125 -5 227 -9 227 -5 0 -7 -100 -4 -222z"/>
<path d="M2106 3181 c5 -4 23 -11 39 -15 l30 -6 -25 15 c-27 16 -60 21 -44 6z"/>
<path d="M828 3163 c7 -3 16 -2 19 1 4 3 -2 6 -13 5 -11 0 -14 -3 -6 -6z"/>
<path d="M1295 3130 c-3 -5 -1 -10 4 -10 6 0 11 5 11 10 0 6 -2 10 -4 10 -3 0
-8 -4 -11 -10z"/>
<path d="M1930 3136 c0 -2 9 -6 20 -9 11 -3 20 -1 20 4 0 5 -9 9 -20 9 -11 0
-20 -2 -20 -4z"/>
<path d="M1296 3093 c-6 -14 -5 -15 5 -6 7 7 10 15 7 18 -3 3 -9 -2 -12 -12z"/>
<path d="M1070 3079 c-11 -7 -4 -8 25 -3 50 8 58 14 19 14 -16 0 -36 -5 -44
-11z"/>
<path d="M998 3073 c7 -3 16 -2 19 1 4 3 -2 6 -13 5 -11 0 -14 -3 -6 -6z"/>
<path d="M800 3059 c-28 -4 -11 -5 45 -2 50 3 92 7 94 9 7 6 -90 2 -139 -7z"/>
<path d="M4191 3024 c0 -11 3 -14 6 -6 3 7 2 16 -1 19 -3 4 -6 -2 -5 -13z"/>
<path d="M785 3015 c-81 -11 -94 -20 -22 -15 15 1 27 -3 27 -9 0 -6 5 -11 11
-11 5 0 7 5 4 10 -3 6 -3 10 2 10 78 4 148 13 166 20 32 13 -77 10 -188 -5z"/>
<path d="M2020 2984 c-1 -43 -2 -47 -14 -31 -16 21 -22 21 -29 3 -4 -10 -1
-13 9 -9 9 3 14 -2 14 -15 0 -15 5 -19 19 -15 17 4 19 12 14 56 -7 68 -13 73
-13 11z"/>
<path d="M513 2983 c9 -2 23 -2 30 0 6 3 -1 5 -18 5 -16 0 -22 -2 -12 -5z"/>
<path d="M80 2970 c0 -5 5 -10 11 -10 5 0 7 5 4 10 -3 6 -8 10 -11 10 -2 0 -4
-4 -4 -10z"/>
<path d="M1955 2920 c-3 -5 3 -10 14 -10 12 0 21 5 21 10 0 6 -6 10 -14 10 -8
0 -18 -4 -21 -10z"/>
<path d="M3931 2804 c0 -11 3 -14 6 -6 3 7 2 16 -1 19 -3 4 -6 -2 -5 -13z"/>
<path d="M3595 2700 c-3 -6 1 -7 9 -4 18 7 21 14 7 14 -6 0 -13 -4 -16 -10z"/>
<path d="M825 2630 l-30 -8 30 -1 c17 0 37 4 45 9 13 9 13 10 0 9 -8 -1 -28
-5 -45 -9z"/>
<path d="M707 2609 c-9 -6 -25 -9 -35 -8 -37 3 -95 -1 -89 -8 4 -3 -2 -12 -13
-20 -24 -17 -27 -35 -5 -26 9 3 13 8 11 11 -11 10 30 31 62 32 34 0 44 -15 15
-23 -11 -3 -8 -5 9 -6 20 -1 26 3 22 14 -5 13 4 19 27 17 3 -1 23 5 45 13 l39
14 -35 0 c-19 0 -43 -4 -53 -10z"/>
<path d="M3915 2600 c3 -5 1 -10 -6 -10 -7 0 -10 -2 -7 -5 7 -8 38 5 38 16 0
5 -7 9 -16 9 -8 0 -12 -4 -9 -10z"/>
<path d="M1041 2588 c-1 -11 -14 -18 -42 -23 -57 -10 -43 -16 20 -8 29 3 48 9
43 12 -5 3 -12 13 -15 21 -4 12 -6 12 -6 -2z"/>
<path d="M3850 2590 c-18 -12 -2 -12 25 0 13 6 15 9 5 9 -8 0 -22 -4 -30 -9z"/>
<path d="M4297 2338 c2 -144 6 -264 9 -267 2 -3 4 115 4 262 -1 147 -5 267 -9
267 -5 0 -7 -118 -4 -262z"/>
<path d="M538 2583 c7 -3 16 -2 19 1 4 3 -2 6 -13 5 -11 0 -14 -3 -6 -6z"/>
<path d="M955 2580 c-3 -5 -1 -10 4 -10 6 0 11 5 11 10 0 6 -2 10 -4 10 -3 0
-8 -4 -11 -10z"/>
<path d="M3496 2577 c3 -10 9 -15 12 -12 3 3 0 11 -7 18 -10 9 -11 8 -5 -6z"/>
<path d="M708 2573 c6 -2 18 -2 25 0 6 3 1 5 -13 5 -14 0 -19 -2 -12 -5z"/>
<path d="M3924 2563 c5 -9 -1 -11 -21 -8 -36 7 -58 -7 -49 -31 5 -12 10 -15
14 -7 13 20 46 20 58 -1 11 -18 12 -17 10 11 -1 18 -5 35 -10 40 -5 4 -6 3 -2
-4z"/>
<path d="M520 2550 c0 -5 5 -10 10 -10 6 0 10 5 10 10 0 6 -4 10 -10 10 -5 0
-10 -4 -10 -10z"/>
<path d="M1245 2550 c12 -5 14 -9 6 -9 -8 -1 -12 -4 -9 -7 4 -3 18 1 33 8 l26
14 -38 1 c-29 0 -33 -1 -18 -7z"/>
<path d="M1018 2543 c7 -3 16 -2 19 1 4 3 -2 6 -13 5 -11 0 -14 -3 -6 -6z"/>
<path d="M1195 2540 c-3 -5 -3 -10 2 -10 4 0 1 -5 -7 -10 -13 -9 -13 -10 0
-10 13 0 13 -1 0 -11 -12 -9 -13 -10 0 -7 8 3 15 16 15 31 2 29 0 33 -10 17z"/>
<path d="M1329 2539 c14 -5 28 -6 32 -2 4 4 -6 9 -24 10 -30 1 -31 1 -8 -8z"/>
<path d="M710 2520 c0 -5 7 -7 15 -4 8 4 15 8 15 10 0 2 -7 4 -15 4 -8 0 -15
-4 -15 -10z"/>
<path d="M4120 2520 c8 -5 20 -10 25 -10 6 0 3 5 -5 10 -8 5 -19 10 -25 10 -5
0 -3 -5 5 -10z"/>
<path d="M630 2510 c-10 -6 -2 -7 25 -3 49 7 58 13 19 13 -16 0 -36 -5 -44
-10z"/>
<path d="M3925 2445 c1 -24 -2 -42 -6 -40 -3 3 -9 -4 -12 -16 -4 -15 -1 -19
11 -17 13 2 18 16 20 52 2 27 -1 53 -5 57 -5 5 -8 -11 -8 -36z"/>
<path d="M1238 2453 c7 -3 16 -2 19 1 4 3 -2 6 -13 5 -11 0 -14 -3 -6 -6z"/>
<path d="M1160 2440 c0 -5 5 -10 11 -10 5 0 7 5 4 10 -3 6 -8 10 -11 10 -2 0
-4 -4 -4 -10z"/>
<path d="M1180 2410 c0 -5 5 -10 11 -10 5 0 7 5 4 10 -3 6 -8 10 -11 10 -2 0
-4 -4 -4 -10z"/>
<path d="M3875 2410 c3 -5 8 -10 11 -10 2 0 4 5 4 10 0 6 -5 10 -11 10 -5 0
-7 -4 -4 -10z"/>
<path d="M4193 2380 c0 -25 2 -35 4 -22 2 12 2 32 0 45 -2 12 -4 2 -4 -23z"/>
<path d="M3850 2392 c0 -10 -6 -24 -12 -31 -11 -10 -10 -11 5 -6 15 6 26 55
12 55 -3 0 -5 -8 -5 -18z"/>
<path d="M995 2380 c-8 -13 35 -13 55 0 11 7 7 10 -17 10 -17 0 -35 -4 -38
-10z"/>
<path d="M3881 2374 c0 -11 3 -14 6 -6 3 7 2 16 -1 19 -3 4 -6 -2 -5 -13z"/>
<path d="M7 2308 c3 -29 5 -61 4 -71 0 -14 3 -16 13 -8 7 6 12 21 10 34 -11
75 -16 97 -23 97 -5 0 -7 -24 -4 -52z"/>
<path d="M3927 2352 c-5 -7 -12 -10 -17 -7 -14 9 -20 -25 -20 -121 0 -52 -4
-94 -9 -94 -13 0 -21 27 -21 71 0 21 -5 39 -11 39 -5 0 -7 -4 -4 -10 3 -5 2
-10 -4 -10 -5 0 -12 8 -14 18 -3 10 -5 6 -6 -11 -1 -17 3 -26 9 -22 6 3 10 1
10 -5 0 -25 -35 -3 -41 25 -4 21 -6 11 -7 -31 0 -57 1 -61 26 -71 l27 -10 -35
-11 c-32 -9 -31 -12 9 -16 16 -1 36 -46 21 -46 -16 0 -11 -27 6 -34 8 -3 12
-11 9 -17 -4 -6 3 -13 15 -16 17 -4 19 -8 8 -15 -9 -7 -3 -8 17 -4 19 4 25 3
17 -2 -11 -8 -11 -10 2 -15 9 -4 16 -11 16 -17 0 -6 -7 -4 -16 4 -20 20 -35
21 -28 1 4 -9 0 -15 -10 -15 -9 0 -16 4 -16 9 0 5 -10 8 -22 8 -13 -1 -36 2
-53 6 -22 6 -26 5 -15 -3 13 -9 13 -10 0 -10 -12 -1 -11 -3 3 -11 10 -6 31 -8
46 -4 18 4 32 2 36 -5 5 -8 1 -10 -11 -6 -11 3 -25 2 -32 -2 -11 -8 44 -38
101 -56 9 -3 17 -10 17 -16 0 -6 -4 -9 -9 -5 -5 3 -12 1 -16 -5 -3 -5 -4 -10
-1 -10 2 0 11 -3 20 -6 12 -5 16 0 16 20 0 14 -5 26 -11 26 -6 0 -7 5 -2 13
11 17 13 35 18 202 5 161 -5 318 -18 297z m-10 -269 c5 3 9 -3 10 -13 1 -11
-3 -23 -9 -26 -7 -5 -8 -2 -3 6 5 9 2 10 -13 6 -15 -5 -21 -1 -24 18 -6 32 3
42 19 21 6 -10 16 -15 20 -12z m-7 -53 c11 -7 11 -10 2 -10 -7 0 -10 -4 -7
-10 3 -6 -1 -7 -9 -4 -9 3 -14 10 -11 14 3 5 -1 11 -7 13 -9 4 -8 6 2 6 8 0
22 -4 30 -9z m19 -156 c3 -2 0 -9 -5 -14 -6 -6 -23 -6 -47 1 -46 12 -48 20 -4
14 26 -5 29 -4 12 5 -17 9 -15 9 10 4 16 -3 32 -8 34 -10z"/>
<path d="M42 2314 c5 -21 7 -50 4 -66 -3 -16 -1 -28 5 -28 6 0 7 5 4 10 -3 6
-2 10 4 10 17 0 5 105 -13 108 -12 3 -13 -3 -4 -34z"/>
<path d="M3860 2340 c-13 -8 -12 -10 3 -10 9 0 17 5 17 10 0 12 -1 12 -20 0z"/>
<path d="M4092 2305 c0 -16 2 -22 5 -12 2 9 2 23 0 30 -3 6 -5 -1 -5 -18z"/>
<path d="M4192 2300 c0 -19 2 -27 5 -17 2 9 2 25 0 35 -3 9 -5 1 -5 -18z"/>
<path d="M4322 2310 c0 -14 2 -19 5 -12 2 6 2 18 0 25 -3 6 -5 1 -5 -13z"/>
<path d="M760 2311 c0 -5 -3 -17 -7 -27 -4 -11 -2 -15 7 -12 15 5 22 48 8 48
-4 0 -8 -4 -8 -9z"/>
<path d="M3832 2295 c-11 -12 -10 -15 3 -15 8 0 15 7 15 15 0 18 -2 18 -18 0z"/>
<path d="M4030 2300 c0 -5 5 -10 10 -10 6 0 10 5 10 10 0 6 -4 10 -10 10 -5 0
-10 -4 -10 -10z"/>
<path d="M4071 2284 c0 -11 3 -14 6 -6 3 7 2 16 -1 19 -3 4 -6 -2 -5 -13z"/>
<path d="M748 2253 c7 -3 16 -2 19 1 4 3 -2 6 -13 5 -11 0 -14 -3 -6 -6z"/>
<path d="M4055 2250 c3 -5 8 -10 11 -10 2 0 4 5 4 10 0 6 -5 10 -11 10 -5 0
-7 -4 -4 -10z"/>
<path d="M4125 2220 c-3 -5 -1 -10 4 -10 6 0 11 5 11 10 0 6 -2 10 -4 10 -3 0
-8 -4 -11 -10z"/>
<path d="M4321 2204 c0 -11 3 -14 6 -6 3 7 2 16 -1 19 -3 4 -6 -2 -5 -13z"/>
<path d="M25 2200 c3 -5 -2 -10 -11 -10 -14 0 -15 -3 -6 -12 7 -7 12 -35 13
-62 1 -47 1 -48 10 -21 5 17 7 36 4 44 -3 8 -1 17 4 21 12 7 3 50 -11 50 -5 0
-6 -4 -3 -10z"/>
<path d="M55 2200 c-3 -5 -1 -10 4 -10 6 0 11 5 11 10 0 6 -2 10 -4 10 -3 0
-8 -4 -11 -10z"/>
<path d="M4180 2203 c0 -5 5 -15 10 -23 8 -12 10 -11 10 8 0 12 -4 22 -10 22
-5 0 -10 -3 -10 -7z"/>
<path d="M4165 2151 l-20 -8 20 -5 c18 -5 18 -6 -2 -7 -13 0 -23 -6 -23 -12 0
-6 9 -8 23 -4 22 7 22 7 2 -9 -11 -8 -14 -16 -7 -16 17 0 15 -39 -3 -46 -11
-4 -12 -11 -5 -24 5 -9 7 -20 4 -23 -3 -3 -2 -12 2 -19 6 -9 11 -2 15 22 5 27
7 19 8 -32 1 -48 -3 -68 -11 -68 -9 0 -8 -4 2 -10 13 -9 13 -10 0 -10 -12 0
-12 -2 -2 -9 11 -7 10 -9 -3 -15 -9 -3 -13 -10 -10 -16 3 -5 0 -10 -7 -10 -9
0 -9 -3 2 -10 12 -8 10 -10 -10 -11 l-25 -1 25 -8 c18 -6 20 -8 7 -9 -10 -1
-15 -6 -12 -11 4 -6 12 -7 18 -3 7 4 6 0 -2 -10 -9 -11 -10 -17 -2 -17 6 0 11
-6 11 -14 0 -11 20 -26 35 -26 2 0 4 101 5 225 0 124 -3 225 -7 224 -4 0 -17
-4 -28 -8z m18 -357 c-3 -78 -13 -82 -13 -6 0 34 3 62 8 62 4 0 6 -25 5 -56z"/>
<path d="M4090 2140 c8 -5 20 -10 25 -10 6 0 3 5 -5 10 -8 5 -19 10 -25 10 -5
0 -3 -5 5 -10z"/>
<path d="M3788 2113 c6 -2 18 -2 25 0 6 3 1 5 -13 5 -14 0 -19 -2 -12 -5z"/>
<path d="M4108 2083 c7 -3 16 -2 19 1 4 3 -2 6 -13 5 -11 0 -14 -3 -6 -6z"/>
<path d="M3775 2048 c-5 -22 -3 -35 7 -42 8 -6 13 -17 10 -25 -3 -10 2 -11 19
-6 33 10 48 25 25 25 -16 0 -18 6 -13 43 4 29 4 36 -3 21 -13 -32 -28 -37 -22
-9 7 37 -15 30 -23 -7z"/>
<path d="M4301 2044 c0 -11 3 -14 6 -6 3 7 2 16 -1 19 -3 4 -6 -2 -5 -13z"/>
<path d="M3685 2040 c-3 -5 -2 -18 4 -27 7 -14 9 -12 8 10 -2 30 -3 31 -12 17z"/>
<path d="M3735 2030 c-3 -5 -1 -10 4 -10 6 0 11 5 11 10 0 6 -2 10 -4 10 -3 0
-8 -4 -11 -10z"/>
<path d="M4108 2023 c7 -3 16 -2 19 1 4 3 -2 6 -13 5 -11 0 -14 -3 -6 -6z"/>
<path d="M4 1975 c1 -24 3 -42 6 -40 10 6 11 73 2 79 -4 3 -8 -15 -8 -39z"/>
<path d="M81 2004 c0 -11 3 -14 6 -6 3 7 2 16 -1 19 -3 4 -6 -2 -5 -13z"/>
<path d="M3590 2010 c0 -5 5 -10 11 -10 5 0 7 5 4 10 -3 6 -8 10 -11 10 -2 0
-4 -4 -4 -10z"/>
<path d="M3730 1989 c0 -15 7 -29 15 -33 18 -7 18 2 0 34 l-14 25 -1 -26z"/>
<path d="M4321 1984 c0 -11 3 -14 6 -6 3 7 2 16 -1 19 -3 4 -6 -2 -5 -13z"/>
<path d="M3620 1950 c-6 -12 -9 -28 -6 -36 3 -7 -5 -20 -17 -29 -17 -12 -18
-15 -5 -15 18 0 44 37 34 47 -3 3 -1 14 5 25 6 11 8 22 6 25 -3 2 -11 -5 -17
-17z"/>
<path d="M3827 1963 c-4 -3 -7 -13 -7 -20 0 -20 23 -11 26 10 2 17 -7 22 -19
10z"/>
<path d="M4104 1949 c-3 -6 -1 -16 6 -22 10 -9 11 -9 6 1 -9 15 30 17 39 2 4
-6 1 -9 -7 -8 -7 2 -12 -5 -11 -15 0 -11 -4 -16 -11 -14 -8 3 -11 -4 -8 -24 5
-32 14 -36 32 -14 9 11 9 15 1 15 -8 0 -6 10 4 31 9 17 14 37 11 45 -6 16 -52
19 -62 3z"/>
<path d="M8 1903 c7 -3 16 -2 19 1 4 3 -2 6 -13 5 -11 0 -14 -3 -6 -6z"/>
<path d="M4080 1900 c0 -5 5 -10 11 -10 5 0 7 5 4 10 -3 6 -8 10 -11 10 -2 0
-4 -4 -4 -10z"/>
<path d="M28 1883 c7 -3 16 -2 19 1 4 3 -2 6 -13 5 -11 0 -14 -3 -6 -6z"/>
<path d="M52 1830 c0 -14 2 -19 5 -12 2 6 2 18 0 25 -3 6 -5 1 -5 -13z"/>
<path d="M5 1655 c2 -104 6 -199 8 -210 2 -11 -1 -23 -7 -27 -7 -5 -6 -8 4 -8
13 0 13 -1 0 -10 -11 -7 -11 -10 -2 -10 7 0 10 -5 6 -11 -4 -7 -8 -28 -10 -47
-2 -27 0 -32 8 -22 8 12 8 10 3 -5 -12 -33 -16 -222 -5 -205 8 13 10 12 10 -2
0 -10 -6 -18 -12 -18 -9 0 -8 -4 2 -10 10 -6 11 -10 3 -10 -7 0 -13 -7 -13
-15 0 -8 6 -15 13 -15 8 0 7 -4 -3 -10 -13 -9 -13 -10 0 -10 13 0 13 -1 0 -10
-12 -8 -12 -10 5 -11 16 0 17 -2 5 -7 -18 -8 -21 -43 -5 -54 6 -5 4 -8 -5 -8
-13 0 -13 -1 0 -10 10 -6 11 -10 3 -10 -7 0 -13 -5 -13 -11 0 -5 4 -7 10 -4 6
3 10 -5 10 -19 0 -14 -4 -27 -9 -30 -13 -8 -7 -51 7 -49 7 2 12 -6 12 -18 0
-13 -4 -18 -11 -13 -8 5 -10 -1 -7 -20 3 -15 1 -26 -6 -27 -6 0 2 -7 19 -14
18 -9 23 -14 13 -15 -26 0 -44 -39 -26 -55 11 -11 19 -11 46 0 36 16 43 47 15
64 -10 6 -13 11 -8 11 12 0 15 40 3 40 -4 0 -8 14 -8 31 0 28 2 30 17 18 12
-10 15 -10 9 -1 -12 21 -17 62 -7 62 6 0 8 9 6 20 -2 11 0 22 4 24 13 8 5 191
-8 188 -9 -2 -9 3 -1 18 10 18 7 23 -10 22 -3 0 -7 11 -8 24 -1 14 2 22 8 19
6 -4 7 6 4 25 -4 19 -2 30 5 30 6 0 11 5 11 11 0 5 -5 7 -12 3 -7 -5 -8 -3 -2
7 14 23 13 37 -3 43 -8 3 -12 10 -8 16 3 5 1 19 -5 30 -12 22 -5 60 11 60 6 0
7 -5 3 -12 -4 -7 -3 -8 5 -4 15 10 5 25 -24 36 -17 7 -22 14 -18 29 3 12 10
21 17 22 6 0 2 4 -9 9 -17 8 -16 9 9 7 28 -2 28 -1 32 53 2 37 0 50 -6 40 -8
-12 -10 -11 -10 5 0 17 -2 17 -10 5 -5 -8 -10 -24 -10 -35 0 -17 2 -18 11 -5
9 13 10 13 5 0 -3 -8 -9 -23 -12 -32 -12 -34 -22 -18 -19 32 2 28 -1 50 -5 50
-4 0 -10 11 -12 25 -4 17 -1 25 8 25 8 0 14 5 14 10 0 6 -4 10 -10 10 -5 0
-10 7 -10 16 0 8 4 13 8 10 4 -2 6 11 4 30 -2 19 -9 34 -14 34 -6 0 -8 6 -5
13 3 8 1 29 -3 48 -5 20 -7 -45 -5 -156z m75 -589 c-4 -4 -16 -4 -26 2 -16 9
-14 10 8 9 15 -1 23 -6 18 -11z m-10 -32 c0 -8 -4 -12 -10 -9 -5 3 -10 10 -10
16 0 5 5 9 10 9 6 0 10 -7 10 -16z m7 -30 c-3 -3 -12 -4 -19 -1 -8 3 -5 6 6 6
11 1 17 -2 13 -5z m8 -43 c3 -5 0 -13 -6 -17 -7 -4 -9 -3 -5 4 3 5 0 13 -6 15
-9 4 -10 6 -1 6 6 1 14 -3 18 -8z m-1 -46 c3 -9 0 -15 -9 -15 -9 0 -12 6 -9
15 4 8 7 15 9 15 2 0 5 -7 9 -15z m-9 -34 c3 -5 1 -12 -5 -16 -5 -3 -10 1 -10
9 0 18 6 21 15 7z"/>
<path d="M3700 1826 c0 -18 6 -19 35 -6 11 5 15 9 8 9 -6 1 -18 4 -27 7 -11 4
-16 1 -16 -10z"/>
<path d="M3810 1770 c-8 -5 -10 -10 -5 -10 6 0 17 5 25 10 8 5 11 10 5 10 -5
0 -17 -5 -25 -10z"/>
<path d="M3889 1770 c-1 -3 -1 -8 0 -12 0 -5 -10 -8 -24 -8 -14 0 -25 -4 -25
-9 0 -5 9 -7 20 -4 11 3 31 2 45 -1 20 -5 25 -13 25 -36 0 -24 -6 -33 -26 -41
-15 -5 -36 -7 -48 -4 -15 5 -17 4 -7 -3 11 -8 11 -10 0 -15 -8 -2 7 -10 33
-17 37 -10 46 -16 43 -31 -2 -10 0 -19 4 -19 10 0 14 129 6 173 -5 24 -12 33
-26 33 -10 0 -20 -3 -20 -6z m-2 -136 c-3 -3 -12 -4 -19 -1 -8 3 -5 6 6 6 11
1 17 -2 13 -5z"/>
<path d="M4292 1750 c0 -19 2 -27 5 -17 2 9 2 25 0 35 -3 9 -5 1 -5 -18z"/>
<path d="M63 1744 c-7 -15 -9 -34 -4 -47 6 -17 9 -13 14 23 7 53 6 56 -10 24z"/>
<path d="M4155 1700 c-5 -9 -4 -17 10 -84 5 -26 4 -28 -9 -17 -13 11 -16 11
-16 -3 0 -9 6 -16 13 -16 14 0 19 -40 10 -80 -6 -25 -6 -25 -13 5 -7 28 -8 27
-9 -11 -1 -29 4 -44 15 -48 8 -3 12 -2 9 4 -3 6 -1 10 5 10 5 0 9 -13 8 -30
-1 -16 -7 -30 -12 -30 -5 0 -7 -2 -4 -5 3 -3 11 -3 19 0 19 7 19 247 0 253 -9
3 -9 7 0 18 12 15 6 44 -10 44 -5 0 -12 -4 -16 -10z"/>
<path d="M3830 1689 c0 -5 5 -7 10 -4 6 3 10 8 10 11 0 2 -4 4 -10 4 -5 0 -10
-5 -10 -11z"/>
<path d="M3880 1690 c-24 -8 -23 -8 8 -9 17 -1 32 4 32 9 0 11 -5 11 -40 0z"/>
<path d="M3981 1637 c1 -31 5 -55 8 -52 6 7 1 98 -5 105 -3 2 -4 -21 -3 -53z"/>
<path d="M60 1644 c0 -12 7 -27 15 -34 19 -16 19 -10 0 26 -13 25 -15 26 -15
8z"/>
<path d="M41 1614 c0 -11 3 -14 6 -6 3 7 2 16 -1 19 -3 4 -6 -2 -5 -13z"/>
<path d="M4323 1500 c0 -47 2 -66 4 -42 2 23 2 61 0 85 -2 23 -4 4 -4 -43z"/>
<path d="M3979 1548 c-8 -15 -8 -23 -1 -26 6 -2 9 -27 6 -65 -3 -53 -2 -57 6
-27 8 29 10 140 3 140 -1 0 -8 -10 -14 -22z"/>
<path d="M4131 1547 c-13 -21 -12 -21 5 -5 10 10 16 20 13 22 -3 3 -11 -5 -18
-17z"/>
<path d="M4303 1525 c0 -22 2 -30 4 -17 2 12 2 30 0 40 -3 9 -5 -1 -4 -23z"/>
<path d="M3920 1525 c0 -8 2 -15 4 -15 2 0 6 7 10 15 3 8 1 15 -4 15 -6 0 -10
-7 -10 -15z"/>
<path d="M4303 1420 c0 -30 2 -43 4 -27 2 15 2 39 0 55 -2 15 -4 2 -4 -28z"/>
<path d="M55 1450 c-3 -5 1 -10 10 -10 9 0 13 -4 10 -10 -3 -5 -1 -10 4 -10 6
0 11 9 11 20 0 21 -24 28 -35 10z"/>
<path d="M4160 1370 c0 -5 5 -10 10 -10 6 0 10 5 10 10 0 6 -4 10 -10 10 -5 0
-10 -4 -10 -10z"/>
<path d="M3981 1358 c-1 -10 4 -18 9 -18 6 0 10 -13 10 -30 0 -20 -5 -30 -15
-30 -8 0 -15 -7 -15 -15 0 -8 4 -15 10 -15 10 0 21 -8 97 -73 25 -20 49 -35
54 -31 5 3 7 9 4 14 -3 5 -1 11 5 15 5 3 10 11 10 17 0 7 -6 6 -15 -2 -8 -7
-15 -9 -15 -4 0 10 -47 34 -67 34 -19 0 -32 31 -39 95 -4 31 -10 51 -14 45 -6
-9 -9 -9 -13 1 -4 10 -6 9 -6 -3z m110 -165 c13 -16 12 -17 -3 -4 -17 13 -22
21 -14 21 2 0 10 -8 17 -17z"/>
<path d="M4160 1330 c0 -5 5 -10 10 -10 6 0 10 5 10 10 0 6 -4 10 -10 10 -5 0
-10 -4 -10 -10z"/>
<path d="M4173 1283 c-18 -7 -16 -20 2 -20 8 0 15 6 15 14 0 7 -1 13 -2 12 -2
0 -9 -3 -15 -6z"/>
<path d="M4303 1255 c0 -22 2 -30 4 -17 2 12 2 30 0 40 -3 9 -5 -1 -4 -23z"/>
<path d="M4145 1241 l20 -8 -20 -6 c-18 -5 -18 -6 -1 -4 29 3 32 27 4 26 -21
0 -22 -1 -3 -8z"/>
<path d="M4088 1233 c7 -3 16 -2 19 1 4 3 -2 6 -13 5 -11 0 -14 -3 -6 -6z"/>
<path d="M4155 1188 c-7 -22 -9 -38 -6 -57 0 -5 10 -11 21 -14 16 -4 20 0 20
18 0 12 -6 35 -14 49 l-13 27 -8 -23z"/>
<path d="M3765 1070 c3 -5 15 -10 26 -10 10 0 19 5 19 10 0 6 -12 10 -26 10
-14 0 -23 -4 -19 -10z"/>
<path d="M4302 950 c0 -19 2 -27 5 -17 2 9 2 25 0 35 -3 9 -5 1 -5 -18z"/>
<path d="M3952 945 c2 -13 12 -21 28 -22 14 -1 18 0 10 3 -8 4 -21 14 -28 23
-13 14 -13 14 -10 -4z"/>
<path d="M4 590 c0 -14 7 -18 26 -16 14 2 17 1 8 -1 -21 -5 -24 -29 -5 -36 6
-2 2 -3 -10 -1 -16 3 -20 -1 -18 -14 2 -9 4 -20 4 -23 1 -3 13 -4 28 -1 24 5
25 6 8 12 -17 6 -16 7 7 12 17 3 25 1 21 -5 -3 -6 -1 -7 5 -3 15 9 15 47 -1
67 -7 9 -26 18 -42 22 -25 5 -31 2 -31 -13z m73 -42 c-3 -8 -6 -5 -6 6 -1 11
2 17 5 13 3 -3 4 -12 1 -19z"/>
<path d="M51 491 c-22 -6 -23 -8 -8 -23 9 -8 14 -18 11 -21 -7 -7 -12 -34 -14
-72 0 -26 -2 -27 -11 -12 -6 10 -11 31 -11 47 -1 17 -4 30 -7 30 -3 0 -7 -40
-8 -90 -2 -65 1 -90 10 -90 7 0 8 -3 2 -8 -5 -4 -11 -12 -12 -19 -3 -14 24
-25 32 -13 10 16 25 11 19 -5 -4 -8 -16 -16 -28 -16 -16 -1 -17 -2 -3 -6 23
-6 22 -29 -4 -46 l-20 -15 23 -22 c22 -22 22 -22 2 -18 -18 5 -20 1 -20 -43
l-1 -49 41 0 42 0 -2 133 c-1 72 -2 132 -4 132 -1 0 -3 8 -5 18 -2 9 0 15 5
12 4 -3 10 6 12 20 3 15 1 25 -6 25 -6 0 -5 4 3 9 11 7 11 9 0 14 -10 4 -10 6
-1 6 6 1 12 6 12 12 0 5 -4 7 -10 4 -13 -8 -13 8 1 22 8 8 5 17 -10 32 -21 21
-29 47 -11 36 6 -3 10 1 10 9 0 9 -1 16 -2 15 -2 -1 -14 -4 -27 -8z m16 -247
c-3 -3 -12 -4 -19 -1 -8 3 -5 6 6 6 11 1 17 -2 13 -5z"/>
<path d="M6 463 c-6 -14 -5 -15 5 -6 7 7 10 15 7 18 -3 3 -9 -2 -12 -12z"/>
<path d="M192 245 c0 -16 2 -22 5 -12 2 9 2 23 0 30 -3 6 -5 -1 -5 -18z"/>
</g>
</svg>
